<svg width="66" height="26" viewBox="0 0 66 26" fill="none" xmlns="http://www.w3.org/2000/svg">
<path d="M64.3284 12.025C64.3215 11.953 64.2991 11.8833 64.2627 11.8207C64.2264 11.7581 64.1769 11.7042 64.1177 11.6625L57.7414 7.17842L57.428 5.92461C57.4102 5.85335 57.3769 5.78687 57.3306 5.72988C57.2843 5.67288 57.226 5.62675 57.1599 5.59474L46.0393 0.208495C46.028 0.202941 46.0159 0.200834 46.0044 0.196161C45.9975 0.193557 45.992 0.188501 45.9848 0.185896C45.9787 0.183866 45.9723 0.184709 45.9659 0.18287C45.9189 0.167469 45.8699 0.159155 45.8204 0.158203V0.158203C45.7568 0.159726 45.694 0.173363 45.6355 0.198383C45.6203 0.204588 45.6066 0.210946 45.5921 0.21853C45.5762 0.224763 45.5606 0.231964 45.5456 0.240095C45.507 0.265627 45.4722 0.296413 45.4422 0.331563L45.4383 0.334282L39.1251 7.72952C39.0603 7.80526 39.0196 7.89862 39.0082 7.99764L37.7885 18.5442C37.7782 18.6333 37.7919 18.7235 37.8283 18.8055C37.8647 18.8875 37.9223 18.9583 37.9953 19.0104L46.9636 25.4147C47.0487 25.4755 47.1506 25.5082 47.2552 25.5082C47.2692 25.5082 47.2832 25.5076 47.2972 25.5064L61.5029 24.3167C61.5524 24.3116 61.6008 24.2991 61.6465 24.2794C61.6529 24.2769 61.66 24.2771 61.6663 24.2743C61.725 24.2471 61.7777 24.2086 61.8215 24.161C61.8256 24.1568 61.8316 24.1553 61.8355 24.1508L64.9925 20.6125C65.0386 20.5609 65.0734 20.5004 65.095 20.4346C65.1165 20.3689 65.1242 20.2994 65.1175 20.2305L64.3284 12.025ZM60.2775 23.9161L47.2554 25.0066L38.2871 18.602L39.5068 8.05533L45.3403 1.22261L45.8205 0.660279L46.1793 9.77712L50.6994 15.643L51.8472 20.2788L61.4612 23.817L60.2777 23.9161L60.2775 23.9161ZM61.7936 23.4444C61.7473 23.4017 61.6933 23.3683 61.6344 23.3459L52.2704 19.8996L51.1864 15.5224C51.1696 15.455 51.1392 15.3918 51.0968 15.3367L46.6744 9.59763L46.3325 0.908291L56.9412 6.04633L57.3 7.48155L63.8289 12.0731L64.6179 20.2788L61.7936 23.4444Z" fill="black" fill-opacity="0.7"/>
<path d="M51.3606 20.3999L50.2381 15.8667L45.7822 10.0839C45.7186 10.0014 45.6823 9.90127 45.6782 9.79725L45.3699 1.96191L39.9884 8.26544L38.8201 18.3659L47.3975 24.4912L59.1628 23.506L51.6745 20.7503C51.5976 20.722 51.5287 20.6753 51.474 20.6142C51.4192 20.5531 51.3803 20.4795 51.3606 20.3999Z" fill="black" fill-opacity="0.7"/>
<path d="M3.65799 15.9612H5.65545C5.66422 16.2134 5.61522 16.4642 5.51219 16.6945C5.40915 16.9248 5.25482 17.1286 5.06099 17.2901C4.68933 17.6085 4.21349 17.7789 3.72421 17.7689C3.43502 17.781 3.14663 17.7304 2.87879 17.6207C2.61095 17.5109 2.36999 17.3446 2.17241 17.1331C1.79353 16.704 1.59535 16.145 1.61939 15.5731C1.59749 15.0002 1.79856 14.441 2.18033 14.0132C2.36717 13.8116 2.59523 13.6525 2.84903 13.5469C3.15357 13.4266 3.47927 13.369 3.8066 13.3776C4.1572 13.3717 4.50314 13.4586 4.80938 13.6294C5.09968 13.7931 5.33847 14.0346 5.49883 14.3268H6.17553C5.97658 13.8648 5.64284 13.4737 5.21795 13.2045C4.99964 13.0681 4.76359 12.9624 4.51643 12.8904C4.21813 12.8084 3.9096 12.7695 3.60027 12.7749C3.2475 12.775 2.89872 12.8496 2.57673 12.9937C2.25727 13.132 1.97041 13.3359 1.73476 13.5921C1.24073 14.1313 0.977075 14.8423 1.0001 15.5732C0.972327 16.3004 1.22668 17.0101 1.71001 17.5542C1.94549 17.8105 2.23234 18.0144 2.55187 18.1525C2.86435 18.2945 3.20324 18.3691 3.54645 18.3713C3.81718 18.3781 4.08767 18.3504 4.35139 18.2888C4.88786 18.1432 5.35202 17.8053 5.65545 17.3396V18.3054H6.22482V15.4001H3.65799V15.9612Z" fill="black" fill-opacity="0.7"/>
<path d="M12.4333 15.9437C12.7046 15.8314 12.9332 15.6357 13.086 15.385C13.2389 15.1343 13.3081 14.8415 13.2836 14.5488C13.2956 14.3169 13.2567 14.0852 13.1697 13.87C13.0827 13.6547 12.9497 13.461 12.78 13.3025C12.4104 12.982 11.9314 12.8163 11.4428 12.8401H8.82639V18.3043H9.44529V16.2078H11.3437L12.6643 18.3043H13.3988L11.9627 16.1003C12.1246 16.0647 12.2823 16.0122 12.4333 15.9437ZM11.3355 15.6217H9.44529V13.4262H11.3685C11.7083 13.4094 12.0426 13.5165 12.3095 13.7275C12.4876 13.8979 12.6062 14.1211 12.6479 14.3641C12.6895 14.6071 12.6519 14.8571 12.5406 15.0771C12.4074 15.268 12.2251 15.4193 12.0129 15.5152C11.8008 15.611 11.5668 15.6478 11.3355 15.6217Z" fill="black" fill-opacity="0.7"/>
<path d="M17.5364 12.8398L15.2172 18.3042H15.9023L16.5708 16.7192H19.2781L19.9468 18.304H20.6318L18.3125 12.8398H17.5364ZM16.8103 16.1497L17.9245 13.4838L19.0388 16.1497H16.8103Z" fill="black" fill-opacity="0.7"/>
<path d="M26.295 12.8398L24.4048 17.6024L22.5149 12.8398H21.8377L24.0497 18.3041H24.7598L26.9718 12.8398H26.295Z" fill="black" fill-opacity="0.7"/>
<path d="M30.497 12.8398L28.1776 18.304H28.8627L29.5311 16.7192H32.2385L32.9072 18.304H33.5922L31.2728 12.8398H30.497ZM29.7706 16.1497L30.8849 13.4838L31.9992 16.1497H29.7706Z" fill="black" fill-opacity="0.7"/>
</svg>
