<svg width="79" height="32" viewBox="0 0 79 32" fill="none" xmlns="http://www.w3.org/2000/svg">
<path d="M5.46544 30.6993H0V0.936523H5.46544V19.7096L13.5592 9.44783H19.8062L12.7456 18.3124L19.8062 30.6993H13.5592L9.24467 22.9642L5.46544 27.9746V30.6993Z" fill="#00AF91"/>
<path d="M48.8363 23.0075C48.8363 24.1209 48.6222 25.1701 48.1993 26.1604C47.7764 27.1453 47.1929 28.0072 46.4596 28.7352C45.7262 29.4632 44.8644 30.0413 43.8741 30.4642C42.8837 30.8871 41.8292 31.1012 40.6997 31.1012C39.6933 31.1012 38.7244 30.9246 37.7984 30.5766C36.8723 30.2287 36.0265 29.7094 35.2717 29.035C34.5277 29.7094 33.698 30.2233 32.7772 30.5766C31.8565 30.9299 30.8823 31.1012 29.8652 31.1012C28.7357 31.1012 27.6865 30.8871 26.7015 30.4642C25.7219 30.0413 24.8601 29.4632 24.1267 28.7352C23.388 28.0072 22.8099 27.1453 22.387 26.1604C21.9641 25.1754 21.75 24.1209 21.75 23.0075V9.44824H27.178V23.0075C27.178 23.3768 27.2476 23.7248 27.3867 24.0513C27.5259 24.3778 27.7186 24.6615 27.9649 24.9078C28.2111 25.154 28.4948 25.3467 28.8213 25.4859C29.1479 25.6251 29.4958 25.6947 29.8652 25.6947C30.2345 25.6947 30.5878 25.6251 30.9197 25.4859C31.2516 25.3467 31.5407 25.154 31.7923 24.9078C32.0439 24.6615 32.2419 24.3778 32.3811 24.0513C32.5203 23.7248 32.5899 23.3768 32.5899 23.0075V9.44824H37.9964V23.0075C37.9964 23.3768 38.0714 23.7248 38.2159 24.0513C38.3604 24.3778 38.5585 24.6615 38.8047 24.9078C39.051 25.154 39.3347 25.3467 39.6612 25.4859C39.9878 25.6251 40.3357 25.6947 40.7051 25.6947C41.0744 25.6947 41.4277 25.6251 41.7596 25.4859C42.0915 25.3467 42.3806 25.154 42.6268 24.9078C42.873 24.6615 43.0657 24.3778 43.2156 24.0513C43.3602 23.7248 43.4351 23.3768 43.4351 23.0075V9.44824H48.8417V23.0075H48.8363Z" fill="#00AF91"/>
<path d="M59.1765 3.61864C59.1765 4.12183 59.0802 4.59289 58.8875 5.03184C58.6948 5.47079 58.4325 5.85086 58.1006 6.17739C57.7687 6.50392 57.3833 6.76087 56.939 6.95358C56.4947 7.14629 56.0236 7.24264 55.5151 7.24264C55.0119 7.24264 54.5355 7.14629 54.0912 6.95358C53.6469 6.76087 53.2614 6.50392 52.9403 6.17739C52.6137 5.85086 52.3568 5.47079 52.1641 5.03184C51.9714 4.59289 51.875 4.12183 51.875 3.61864C51.875 3.12617 51.9714 2.66045 52.1641 2.21615C52.3568 1.77185 52.6137 1.38643 52.9403 1.06525C53.2668 0.738717 53.6469 0.481772 54.0912 0.289063C54.5355 0.0963544 55.0065 0 55.5151 0C56.0182 0 56.4947 0.0963544 56.939 0.289063C57.3833 0.481772 57.7687 0.738717 58.1006 1.06525C58.4325 1.39179 58.6948 1.77185 58.8875 2.21615C59.0802 2.66045 59.1765 3.12617 59.1765 3.61864ZM58.2397 30.6996H52.7743V9.40526H58.2397V30.6996Z" fill="#00AF91"/>
<path d="M79.0001 30.6992H61.2441L70.2105 14.8489H61.2441V9.44238H79.0001L70.0338 25.2927H79.0001V30.6992Z" fill="#00AF91"/>
</svg>
