<svg width="158" height="254" viewBox="0 0 158 254" fill="none" xmlns="http://www.w3.org/2000/svg">
<path d="M103.023 31.6247L131.783 33.2474L154.709 1.62565L153.159 0.50293L130.846 31.2787L102.199 29.6623L69.351 67.121L34.9617 59.6676L0.984375 91.7297L2.29894 93.1197L35.5435 61.7526L70.046 69.228L103.023 31.6247Z" fill="#CCF0EA"/>
<path d="M74.6874 67.0955C75.2849 69.8504 73.5332 72.5676 70.7783 73.1651C68.0234 73.7626 65.3062 72.0109 64.7087 69.256C64.1112 66.5011 65.8629 63.7839 68.6178 63.1864C71.3727 62.5889 74.0899 64.3374 74.6874 67.0955Z" fill="#CCF0EA"/>
<path d="M107.59 29.8844C108.187 32.6393 106.436 35.3565 103.681 35.954C100.926 36.5516 98.2086 34.7999 97.6111 32.0449C97.0135 29.29 98.7652 26.5728 101.52 25.9753C104.275 25.3778 106.992 27.1295 107.59 29.8844Z" fill="#CCF0EA"/>
<path d="M136.027 31.0231C136.625 33.778 134.873 36.4952 132.118 37.0927C129.363 37.6902 126.646 35.9385 126.049 33.1836C125.451 30.4287 127.203 27.7115 129.958 27.114C132.713 26.5165 135.43 28.2682 136.027 31.0231Z" fill="#CCF0EA"/>
<path d="M40.2128 60.1012C40.8103 62.8562 39.0586 65.5733 36.3037 66.1709C33.5488 66.7684 30.8316 65.0167 30.2341 62.2618C29.6366 59.5069 31.3883 56.7897 34.1432 56.1922C36.8981 55.5978 39.6153 57.3463 40.2128 60.1012Z" fill="#CCF0EA"/>
<path d="M51.0169 80.1592H30.1191V84.1846H51.0169V80.1592Z" fill="#CCF0EA"/>
<path d="M65.552 38.8633H44.6543V42.8887H65.552V38.8633Z" fill="#CCF0EA"/>
<path d="M108.902 67.6406H88.0039V71.6661H108.902V67.6406Z" fill="#CCF0EA"/>
<path d="M127.648 11.123H106.75V15.1485H127.648V11.123Z" fill="#CCF0EA"/>
<path d="M157.999 44.7998H137.102V48.8252H157.999V44.7998Z" fill="#CCF0EA"/>
<path d="M107.706 242.74C107.706 242.74 105.513 246.029 102.435 246.739C99.3574 247.45 96.3274 248.579 96.3047 250.527C96.2821 252.472 105.201 253.634 108.722 251.671C113.977 248.743 114.513 249.625 115.094 248.163C115.677 246.699 114.395 242.785 114.432 242.319C114.48 241.745 107.706 242.74 107.706 242.74Z" fill="#353A3D"/>
<path d="M108.045 241.12C108.045 241.12 107.645 242.708 107.703 242.743C107.763 242.776 114.638 243.597 114.429 242.322C114.261 241.289 114.02 240.165 114.02 240.165L108.045 241.12Z" fill="#81807E"/>
<path d="M130.843 242.525C130.843 242.525 129.279 245.672 126.606 246.743C123.749 247.89 121.456 249.205 121.509 251.1C121.562 252.998 128.494 254.918 133.538 251.279C136.727 248.981 137.735 248.968 138.248 247.522C138.759 246.073 137.361 242.311 137.378 241.857C137.403 241.295 130.843 242.525 130.843 242.525Z" fill="#353A3D"/>
<path d="M130.766 240.892C130.766 240.892 130.786 242.495 130.844 242.525C130.904 242.555 137.547 243.105 137.379 241.857C137.246 240.867 136.735 239.67 136.735 239.67L130.766 240.892Z" fill="#81807E"/>
<path d="M106.404 144.78C106.404 144.78 100.231 172.069 98.82 180.38C97.6205 187.453 96.6625 194.821 97.2383 199.927C97.9499 206.249 106.882 239.019 106.51 240.871C106.137 242.726 115.856 241.169 115.856 241.169C115.856 241.169 109.064 204.617 110.42 197.813C111.425 192.773 120.229 159.303 121.579 161.019C122.93 162.735 124.602 192.609 125.603 197.568C126.603 202.527 129.671 241.708 129.671 241.708C129.671 241.708 136.531 242.723 138.364 241.169C138.364 241.169 139.199 207.714 138.56 198.415C138.319 194.872 142.702 155.933 137.079 140.257C134.104 131.974 106.404 144.78 106.404 144.78Z" fill="#2D3133"/>
<path d="M79.5331 119.975C83.9335 119.355 97.7737 125.501 99.0335 125.037C99.8985 124.72 101.928 118.09 103.379 113.072C104.236 110.104 104.89 107.702 104.983 107.503L104.988 107.493C104.973 107.627 104.749 109.895 105.036 112.876C105.053 113.067 105.076 113.264 105.099 113.463C105.106 113.513 105.111 113.566 105.119 113.619C105.247 114.688 105.446 115.827 105.742 116.976C106.182 118.677 106.389 120.912 106.467 123.276V123.286C106.467 123.303 106.467 123.321 106.469 123.341C106.469 123.397 106.474 123.45 106.474 123.505C106.474 123.528 106.477 123.548 106.477 123.571C106.6 127.867 106.303 132.499 106.18 134.963C105.986 138.781 107.239 140.5 107.276 140.55L108.601 140.364L109.559 140.228L109.572 140.225L110.852 140.046L115.871 139.338L117.689 139.081L118.119 139.02L121.3 138.572L130.267 137.307L131.25 137.168L131.655 137.11L135.037 136.632L136.566 136.417H136.571C136.571 136.417 137.868 127.192 137.969 122.205C138.06 117.623 140.506 108.325 140.904 106.835C140.906 106.825 140.909 106.815 140.911 106.805C140.914 106.79 140.919 106.777 140.921 106.765C140.929 106.74 140.934 106.717 140.939 106.699C140.941 106.689 140.944 106.679 140.946 106.667C140.946 106.664 140.946 106.659 140.949 106.657C140.949 106.654 140.951 106.651 140.951 106.646C140.954 106.636 140.954 106.631 140.954 106.631C140.954 106.631 148.274 114.337 149.692 117.699C150.124 118.72 151.45 121.494 153.134 124.871C154.286 122.666 155.01 121.134 155.01 120.751C155.01 120.703 155.01 120.652 155.008 120.602C154.9 117.278 151.424 103.799 148.681 94.9916C146.551 90.7001 144.713 87.2301 144.125 86.8068C143.232 86.1642 139.475 84.5514 136.196 83.2486C136.088 83.2057 135.983 83.1629 135.877 83.1226C135.57 83.0016 135.268 82.8832 134.977 82.7698C134.831 82.7143 134.685 82.6564 134.544 82.6035C134.466 82.5732 134.388 82.5455 134.313 82.5153C134.25 82.4901 134.187 82.4674 134.127 82.4422C132.487 81.8172 131.243 81.3813 130.984 81.3661C130.941 81.3636 130.873 81.3636 130.78 81.3661C130.672 81.3687 130.531 81.3737 130.365 81.3863C128.338 81.5047 122.291 82.0743 120.344 82.2582C119.99 82.291 119.771 82.3137 119.738 82.3162C119.736 82.3162 119.733 82.3162 119.733 82.3162C119.733 82.3162 118.806 82.7395 117.41 83.3796L117.282 83.4376C116.437 83.8256 115.461 84.3422 114.43 84.9092C112.406 86.0205 110.173 87.3183 108.317 88.2028C106.499 89.0697 104.01 90.2768 103.799 90.4456L94.5903 117.056L78.6152 114.131L79.5331 119.975Z" fill="#AEFFF1"/>
<path d="M107.274 140.547C107.274 140.547 106.6 141.356 106.404 144.78C106.404 144.78 134.145 141.537 137.077 140.259C137.077 140.259 137.193 136.484 136.569 136.419C135.888 136.346 107.274 140.547 107.274 140.547Z" fill="#495055"/>
<path d="M130.931 80.4221C130.846 84.7842 122.415 87.1731 122.415 87.1731C122.415 87.1731 118.889 82.743 119.732 82.3196C120.064 82.1533 120.197 81.4906 120.237 80.7497C120.275 80.0441 120.229 79.2654 120.189 78.7715C120.164 78.4641 120.141 78.265 120.141 78.265C120.141 78.265 121.346 76.9924 122.877 75.4729C125.555 72.8194 129.237 69.4225 129.242 70.7732C129.242 70.8437 129.232 70.9294 129.212 71.0302C128.563 74.0693 130.931 80.4221 130.931 80.4221Z" fill="white"/>
<path d="M130.234 137.085C130.234 137.085 130.84 140.91 130.893 141.908L132.176 141.651C132.176 141.651 131.821 137.602 131.615 136.924L130.234 137.085Z" fill="#353A3D"/>
<path d="M109.588 140.097C109.588 140.097 109.102 143.575 109.09 144.89L110.448 144.714C110.448 144.714 110.727 140.37 110.88 139.916L109.588 140.097Z" fill="#353A3D"/>
<path d="M127.685 74.0303C127.667 74.0555 127.31 74.5922 126.699 75.3608C125.404 76.9912 122.973 79.6725 120.237 80.7485C120.274 80.0429 120.229 79.2642 120.189 78.7703C119.91 78.7628 119.628 78.73 119.352 78.6695C120.101 77.3566 121.185 75.9807 121.185 75.9807L122.877 75.4742L127.685 74.0303Z" fill="white"/>
<path d="M129.303 70.8283C128.574 72.4184 127.883 73.57 127.684 74.0261C127.556 74.3234 127.209 74.8073 126.698 75.3566C125.31 76.856 122.728 78.8342 120.188 78.7661C119.909 78.7586 119.627 78.7258 119.351 78.6653C118.325 78.4411 117.115 77.9623 116.449 76.6569C111.191 66.3377 114.998 57.9008 114.998 57.9008C114.998 57.9008 129.379 53.826 131.627 58.1629C133.209 61.207 131.016 67.0937 129.303 70.8283Z" fill="white"/>
<path d="M115 57.9039C115 57.9039 113.664 57.8308 113.335 55.2932C113.008 52.7858 113.669 52.0903 113.669 52.0903C113.669 52.0903 119.606 49.6006 121.736 49.2755C123.868 48.9505 129.109 48.6405 130.338 50.0492C130.338 50.0492 133.323 49.3536 134.138 54.3205C135.428 62.2004 129.74 69.8511 129.74 69.8511C129.74 69.8511 129.788 64.7028 128.656 64.0224C127.525 63.3395 126.546 64.9623 126.546 64.9623L124.228 65.3781C124.228 65.3781 127.748 57.7628 123.526 57.4805C119.304 57.1983 117.416 58.3449 115 57.9039Z" fill="#163342"/>
<path d="M126.61 62.9088C126.831 60.6408 130.922 59.7764 130.648 62.1528C130.374 64.5291 128.36 66.8122 127.427 66.7341C126.497 66.6534 126.441 64.6375 126.61 62.9088Z" fill="white"/>
<path d="M155.015 120.753C155.015 120.705 155.015 120.655 155.012 120.604C154.934 117.288 153.305 104.01 150.561 95.2054C149.231 90.9291 148.922 87.9429 148.406 87.5725C147.514 86.9299 139.568 84.5762 136.198 83.2507C136.09 83.2079 135.984 83.165 135.879 83.1247C135.572 83.0038 135.27 82.8853 134.979 82.7719C134.833 82.7165 134.687 82.6585 134.546 82.6056C134.468 82.5754 134.39 82.5477 134.315 82.5174C134.252 82.4922 134.189 82.4695 134.129 82.4443C134.124 82.4494 134.119 82.4569 134.111 82.462C133.812 82.7996 132.25 84.5737 130.39 87.2272C126.909 92.189 122.373 100.223 123.067 107.639C123.288 110.02 123.565 113.44 124.028 117.275C124.068 117.603 124.108 117.933 124.151 118.268C124.264 119.15 124.387 120.052 124.521 120.965C124.601 121.511 124.684 122.063 124.775 122.62C125.697 128.371 128.587 132.292 131.151 136.981C131.174 137.022 131.194 137.06 131.217 137.1C131.229 137.123 131.242 137.145 131.252 137.168C131.307 137.266 131.36 137.367 131.415 137.468C131.504 137.632 131.592 137.798 131.68 137.964C131.73 138.06 131.78 138.156 131.828 138.252C132.318 139.196 132.799 140.162 133.266 141.132C133.568 141.757 133.865 142.387 134.154 143.012C134.184 143.077 134.214 143.143 134.244 143.208C134.244 143.208 134.717 144.307 135.323 145.721C135.544 146.24 135.786 146.799 136.027 147.364C136.193 147.752 136.359 148.14 136.52 148.518C136.663 148.848 136.799 149.168 136.93 149.473C137.222 150.153 137.476 150.751 137.652 151.166C137.782 151.476 137.873 151.688 137.901 151.761C138.783 153.974 139.419 155.682 139.714 156.481C139.832 156.803 139.892 156.977 139.892 156.977L148.766 152.068C150.451 151.222 149.571 146.671 148.937 144.894C148.411 143.417 147.67 141.832 146.835 140.194C146.493 139.524 146.136 138.846 145.769 138.163C148.545 133.3 151.359 128.288 153.141 124.878C154.293 122.668 155.015 121.136 155.015 120.753ZM140.905 106.838C140.908 106.828 140.911 106.817 140.913 106.807C140.916 106.792 140.921 106.78 140.923 106.767C140.928 106.744 140.936 106.724 140.941 106.702C140.943 106.691 140.946 106.681 140.948 106.669C140.948 106.666 140.948 106.661 140.951 106.659C140.951 106.656 140.953 106.654 140.953 106.649C140.953 106.649 145.271 113.41 144.944 119.284C144.894 120.198 143.986 122.509 142.666 125.47C142.666 125.473 142.666 125.473 142.663 125.475C142.183 126.554 141.647 127.721 141.079 128.935C141.056 128.885 141.036 128.834 141.016 128.784C140.191 126.766 139.653 124.87 139.653 123.215C139.656 123.217 140.02 110.328 140.905 106.838Z" fill="#3C4145"/>
<path d="M73.6361 110.954L93.73 115.339L103.308 90.235C103.519 90.0662 106.265 88.5869 108.083 87.7175C109.977 86.8154 112.37 85.699 114.495 84.7163C115.511 84.245 116.467 83.8065 117.274 83.4336L117.339 83.4865C117.339 83.4865 116.152 87.4454 114.619 97.3237V97.3262C114.566 97.6588 114.515 97.9965 114.463 98.3417C114.458 98.382 114.45 98.4224 114.445 98.4627C114.41 98.692 114.375 98.9238 114.342 99.1582C114.337 99.1859 114.334 99.2136 114.329 99.2414C114.307 99.3976 114.282 99.5563 114.259 99.7176C114.201 100.108 114.143 100.506 114.085 100.91C113.401 105.718 112.441 113.903 111.518 122.163V122.166C110.789 128.677 109.127 135.36 108.599 140.347C108.599 140.35 108.599 140.355 108.599 140.357C108.493 141.335 108.244 142.638 107.907 144.107C107.869 144.273 107.829 144.442 107.791 144.611C106.305 150.906 103.419 159.814 103.419 159.814L102.579 159.035L100.089 156.732C99.516 156.203 99.2998 155.389 99.5311 154.645C100.912 150.183 105.604 134.385 106.464 123.277C106.464 123.274 106.464 123.269 106.464 123.267C106.733 119.777 105.714 116.491 105.126 113.373C105.116 113.401 105.106 113.426 105.096 113.454C104.603 114.83 104.055 116.329 103.502 117.786C102.021 121.699 100.504 125.326 99.8731 125.557C98.47 126.074 72.0117 118.827 71.8281 117.786L73.6361 110.954Z" fill="#3C4145"/>
<path d="M131.786 93.2701L127.685 95.5885L129.437 97.3802L124.773 122.623C123.822 116.706 123.39 111.086 123.065 107.641C121.992 96.1731 133.415 83.2356 134.127 82.4443C134.675 82.6535 135.268 82.8828 135.88 83.1272L131.786 93.2701Z" fill="#51565C"/>
<path d="M117.409 83.3789C117.409 83.3789 115.878 88.3936 114.09 100.913C113.406 105.721 112.445 113.906 111.52 122.166L110.564 98.5264L112.518 96.4046L110.781 94.2299L114.497 84.7195C115.513 84.2483 116.469 83.8098 117.276 83.4369L117.409 83.3789Z" fill="#51565C"/>
<path d="M134.333 82.4927L130.933 80.4238C130.933 80.4238 130.837 82.2936 122.416 87.1748L124.807 93.9258L134.333 82.4927Z" fill="#5CFFE3"/>
<path d="M120.176 81.3633C120.176 81.3633 120.309 83.3793 122.417 87.1718L117.75 93.2701L117.41 83.3818L120.176 81.3633Z" fill="#5CFFE3"/>
<path d="M121.293 138.28C121.293 138.28 117.212 138.769 115.861 139.107L116.037 143.693L121.383 143.121L121.293 138.28Z" fill="#69737A"/>
<path d="M134.08 145.715C134.08 145.715 133.104 147.673 132.126 147.998C131.15 148.325 129.725 149.915 129.725 149.915L136.602 153.547C136.602 153.547 138.433 149.958 138.516 147.673C138.598 145.387 134.08 145.715 134.08 145.715Z" fill="white"/>
<path d="M133.428 145.898L132.973 146.816C132.973 146.816 137.34 150.019 138.52 150.22L138.925 148.998L133.428 145.898Z" fill="#DECBC4"/>
<path d="M132.973 145.938C132.973 145.938 136.247 148.652 139.005 149.902L148.284 133.177L143.476 123.863C143.476 123.861 133.189 144.305 132.973 145.938Z" fill="#3C4145"/>
<path d="M105.256 107.535C105.105 110.63 105.128 113.376 105.128 113.376C105.128 113.376 105.128 113.376 105.128 113.379C105.128 113.394 105.123 113.477 105.118 113.616C105.11 113.563 105.105 113.512 105.097 113.46C104.605 114.835 104.056 116.335 103.503 117.791C103.375 116.103 103.342 114.528 103.38 113.071C103.601 104.395 106.324 99.8467 106.324 99.8467C105.698 101.359 105.399 104.602 105.256 107.535Z" fill="#2D3133"/>
<path d="M146.832 140.189L139.404 149.181L145.766 138.158C146.133 138.844 146.49 139.522 146.832 140.189Z" fill="#2D3133"/>
<path d="M92.889 128.917H75.7396C74.5653 128.917 73.5419 128.11 73.2653 126.966L65.8146 96.1447C65.4274 94.5394 66.6419 92.9922 68.289 92.9922H85.4383C86.6126 92.9922 87.636 93.7986 87.9126 94.9426L95.3608 125.764C95.7505 127.372 94.536 128.917 92.889 128.917Z" fill="#5CFFE3"/>
<path d="M71.9125 120.349C72.7523 119.571 74.3692 119.12 75.7572 118.192C77.1428 117.265 75.9861 116.307 75.9861 116.307C77.4093 115.816 77.2559 115.166 77.0749 114.722C76.8285 114.123 75.2719 114.294 75.2719 114.294C75.2719 114.294 76.6675 113.984 77.2408 113.729C77.8142 113.475 77.6205 112.472 76.7379 112.154C75.8553 111.837 72.2595 112.727 72.2595 112.727C72.2595 112.727 72.8454 112.439 74.6207 111.547C76.3934 110.655 76.7832 109.844 75.7371 109.453C75.0104 109.183 73.5821 109.75 70.8388 111.598C68.7743 112.989 68.9428 113.17 68.9428 113.17C68.9428 113.17 70.9092 121.279 71.9125 120.349Z" fill="white"/>
</svg>
