<svg width="286" height="229" viewBox="0 0 286 229" fill="none" xmlns="http://www.w3.org/2000/svg">
<path d="M148.051 195.127C131.422 195.686 16.9235 195.993 2.39005 200.516C-12.1434 205.038 72.9404 212.429 83.8659 212.815C94.7913 213.2 103.066 217.596 90.3662 220.673C77.6666 223.75 139.126 227.754 173.167 228.045C207.208 228.336 175.027 220.55 195.094 219.874C215.188 219.169 285.042 219.474 268.594 213.839C252.147 208.204 293.042 207.94 283.66 204.09C274.303 200.24 177.793 194.096 148.051 195.127Z" fill="#00FF85" fill-opacity="0.08"/>
<path d="M172.241 16.4949C167.228 19.5405 169.263 15.1473 169.263 15.1473C169.263 15.1473 164.372 11.0372 165.099 9.70309C166.123 7.87037 174.061 13.0181 174.061 13.0181L172.241 16.4949Z" fill="white"/>
<path d="M152.403 10.134C152.403 1.29383 148.59 -1.65739 141.313 0.903028C137.014 2.41233 135.842 9.47368 137.189 13.0044C138.2 15.3626 139.803 15.9017 138.954 18.9337C138.442 20.9551 136.273 21.5885 135.922 23.7716C135.518 26.305 137.108 27.6526 139.291 29.0002C142.499 31.0216 139.884 34.1345 137.27 34.2288C140.127 35.3339 143.172 33.7168 144.345 32.3692C146.204 30.3478 143.253 28.6498 143.078 26.4667C142.782 22.8552 144.426 22.5318 145.477 20.5239C146.946 17.7209 142.243 12.0745 148.172 12.3306L152.403 10.134Z" fill="#272525"/>
<path d="M149.036 25.2819C149.036 25.2819 138.147 8.42363 155.908 4.71777C170.004 1.78003 171.554 19.959 167.794 22.1825C163.05 24.9989 149.036 25.2819 149.036 25.2819Z" fill="#272525"/>
<path d="M164.155 40.7642L164.061 31.924L155.908 31.3984L156.016 40.8989C156.016 40.8989 160.045 48.122 164.155 40.7642Z" fill="white"/>
<path d="M156.029 37.9342L164.115 35.859L164.048 31.924L155.908 31.3984L156.029 37.9342Z" fill="white"/>
<path d="M167.362 15.512L167.132 30.8206L160.987 35.335L153.98 32.9094L148.172 19.3122C148.172 19.3122 153.886 17.7625 157.228 13.7197C157.228 13.7197 157.538 16.644 151.81 19.8647C151.81 19.8647 157.093 18.7462 159.667 13.8006C159.653 13.8141 162.012 15.9567 167.362 15.512Z" fill="white"/>
<path d="M149.925 21.631C149.925 21.631 147.162 21.2672 147.796 23.6659C148.618 26.7114 152.391 27.7087 152.391 27.7087L149.925 21.631Z" fill="white"/>
<path d="M166.471 19.2178C166.471 19.2178 169.018 18.0723 169.086 20.5653C169.166 23.7187 165.838 25.7536 165.838 25.7536L166.471 19.2178Z" fill="white"/>
<path d="M161.273 26.6435C160.626 25.7271 159.965 25.0129 159.602 24.8242C159.655 25.2285 160.087 26.0909 160.734 27.0208C160.828 27.1555 160.922 27.2768 161.017 27.3981C161.043 27.4251 161.043 27.4116 161.07 27.4251C161.043 27.452 161.124 27.4385 160.976 27.5059C160.841 27.5868 160.707 27.6542 160.585 27.7215C160.356 27.8563 160.181 27.991 160.087 28.0989C160.235 28.1123 160.451 28.0989 160.707 28.0584C160.841 28.0315 160.99 28.0045 161.138 27.9776C161.286 27.9506 161.677 27.8159 161.987 27.7215C161.771 27.3981 161.529 27.0343 161.273 26.6435Z" fill="white"/>
<path d="M143.846 88.4824L127.5 68.5786L141.191 39.1608L178.264 38.9047L184.597 32.032L172.24 16.4944L174.059 13.0176L195.041 34.1882L179.719 51.7472L174.868 88.132H148.792L144.587 53.8494L137.095 68.2821L147.781 89.1697L146.326 91.3123L143.846 88.4824Z" fill="white"/>
<path d="M161.768 103.062L150.987 200.803H145.381C145.381 200.803 141.527 121.686 142.444 104.571C143.023 93.7772 148.656 88.1309 148.656 88.1309H174.88C174.88 88.1309 180.499 93.7772 181.092 104.571C182.022 121.672 201.064 200.803 201.064 200.803H195.458L161.768 103.062Z" fill="#36E5C7"/>
<path d="M143.751 88.349C138.172 86.5433 141.163 90.3434 141.163 90.3434C141.163 90.3434 137.35 95.4643 138.374 96.5962C139.789 98.146 146.325 91.3137 146.325 91.3137L143.751 88.349Z" fill="white"/>
<path d="M143.105 56.7213L144.587 53.8509L148.792 88.1335H174.868L179.719 51.7487L185.918 44.6334L179.759 37.2891L178.263 38.9062L141.191 39.1622L136.488 49.2556L143.105 56.7213Z" fill="#2C3C4C"/>
<path d="M167.591 38.9717L151.568 39.0795C151.568 39.0795 153.428 52.8383 160.179 52.8383C166.917 52.8383 167.591 38.9717 167.591 38.9717Z" fill="white"/>
<path d="M145.384 200.804C143.309 200.804 131.908 207.622 131.908 207.622H151.003V200.804H145.384Z" fill="#0F1B1B"/>
<path d="M201.053 200.804C203.129 200.804 214.529 207.622 214.529 207.622H195.447V200.804H201.053Z" fill="#0F1B1B"/>
<path d="M47.5547 183.589H92.7971V192.214L70.1759 201.147L47.5547 191.906V183.589Z" fill="black"/>
<path d="M58.751 120.76C58.751 120.76 54.7732 110.742 57.184 107.153C60.7064 101.916 76.1622 95.8757 81.8945 99.0097C86.8098 101.688 83.5821 120.077 80.6757 120.76C77.756 121.443 58.751 120.76 58.751 120.76Z" fill="#272525"/>
<path d="M93.9353 133.217L104.998 164.597L104.141 169.178L92.154 178.419L90.7879 190.66L49.9519 189.884L49.4028 179.102L34.9515 170.905L33.7461 166.914L44.9696 133.565L93.9353 133.217Z" fill="#5CFFE3"/>
<path d="M73.9263 133.778L73.8058 127.228L64.6582 126.76L64.7787 133.885C64.7921 133.898 69.078 143.649 73.9263 133.778Z" fill="white"/>
<path d="M76.6166 134.879H62.0849L58.75 113.369H80.6613L76.6166 134.879Z" fill="white"/>
<path d="M59.9577 118.805C59.9577 118.805 57.1719 117.667 57.1719 119.944C57.1719 122.81 60.8282 124.779 60.8282 124.779L59.9577 118.805Z" fill="white"/>
<path d="M79.4038 118.859C79.4038 118.859 82.3771 117.68 82.3771 119.957C82.3771 122.823 78.3457 124.792 78.3457 124.792L79.4038 118.859Z" fill="white"/>
<path d="M71.0481 126.091C70.4454 123.587 69.7222 121.511 69.2534 120.761C69.173 121.645 69.4945 123.814 70.0972 126.319C70.2311 126.868 70.4454 127.698 70.4186 127.498C70.3784 127.511 70.4856 127.511 70.2981 127.538C70.0838 127.565 69.8829 127.605 69.6954 127.631C69.307 127.698 68.9454 127.765 68.6239 127.832C67.981 127.966 67.4721 128.114 67.1641 128.261C67.4855 128.341 68.0078 128.382 68.6775 128.395C69.0123 128.395 69.3739 128.395 69.7757 128.395C69.9766 128.395 70.1775 128.381 70.3918 128.381C70.7668 128.355 71.1686 128.328 71.5704 128.301C71.3963 127.618 71.2356 126.868 71.0481 126.091Z" fill="white"/>
<path d="M63.9096 210.548L60.8693 203.864L55.5254 206.449L55.8736 223.994C55.8736 223.981 63.9229 220.566 63.9096 210.548Z" fill="#272525"/>
<path d="M92.61 179.06L111.883 173.221L121.03 178.056L119.999 190.444L63.9485 210.574L60.9082 203.891L86.4357 190.418L92.61 179.06Z" fill="black"/>
<path d="M87.4282 190.07C79.8208 193.874 73.4591 197.289 71.1152 198.776C73.7135 197.798 80.2628 194.745 87.8568 190.941C95.4641 187.137 101.826 183.722 104.17 182.235C101.585 183.213 95.0355 186.267 87.4282 190.07Z" fill="#5B5B5B"/>
<path d="M50.2603 179.383L30.9874 173.53L21.8398 178.365L22.8577 190.767L78.9218 210.897L81.9621 204.214L56.4212 190.727L50.2603 179.383Z" fill="black"/>
<path d="M60.105 193.807C70.0561 198.789 78.601 202.847 81.9493 204.2C78.8421 202.325 70.4847 197.918 60.5335 192.936C50.5824 187.954 42.0375 183.896 38.6758 182.543C41.7964 184.405 50.1538 188.824 60.105 193.807Z" fill="#5B5B5B"/>
<path d="M78.9219 210.896L81.9621 204.213L87.3061 206.798L86.9578 224.343C86.9578 224.33 78.9085 220.914 78.9219 210.896Z" fill="#272525"/>
<path d="M51.3734 151.834C50.3957 154.821 49.7528 157.419 49.6992 158.477C50.2885 157.593 51.3198 155.129 52.2975 152.142C53.2752 149.155 53.9181 146.557 53.9717 145.499C53.369 146.383 52.3511 148.847 51.3734 151.834Z" fill="#9FDDC6"/>
<path d="M86.5006 150.024C87.4381 152.89 88.4292 155.261 89.0051 156.105C88.965 155.087 88.3623 152.582 87.4381 149.716C86.514 146.85 85.5095 144.48 84.9336 143.636C84.9604 144.654 85.5631 147.158 86.5006 150.024Z" fill="#9FDDC6"/>
<path d="M92.6234 190.659H46.4837L41.7559 159.131L95.8913 155.676L92.6234 190.659Z" fill="#666666"/>
<path d="M72.642 173.54C72.642 175.642 70.9276 177.357 68.8249 177.357C66.7221 177.357 65.0078 175.656 65.0078 173.54C65.0078 171.437 66.7221 169.723 68.8249 169.723C70.9276 169.723 72.642 171.424 72.642 173.54Z" fill="white"/>
</svg>
