<svg width="81" height="95" viewBox="0 0 81 95" fill="none" xmlns="http://www.w3.org/2000/svg">
<path fill-rule="evenodd" clip-rule="evenodd" d="M9.48291 22.447C9.81574 22.1652 10.315 22.2105 10.5958 22.5444C10.8766 22.8783 10.8316 23.3791 10.4987 23.6608C10.1624 23.9425 9.66666 23.8973 9.38583 23.5634C9.10501 23.2295 9.15008 22.7287 9.48291 22.447Z" fill="#9AD9EA"/>
<path fill-rule="evenodd" clip-rule="evenodd" d="M40.8202 15.199C41.3472 15.3903 41.6176 15.9746 41.4269 16.5033C41.2362 17.032 40.6538 17.3032 40.1268 17.1119C39.5998 16.9207 39.3294 16.3363 39.5201 15.8042C39.7108 15.279 40.2932 15.0077 40.8202 15.199Z" fill="#44C8F5"/>
<path fill-rule="evenodd" clip-rule="evenodd" d="M30.7528 14.5072C31.6612 14.1767 32.6631 14.6463 32.9959 15.5541C33.3253 16.4653 32.8573 17.4705 31.9524 17.8044C31.044 18.1348 30.0421 17.6652 29.7127 16.7575C29.3799 15.8462 29.8479 14.8411 30.7528 14.5072Z" fill="#1C75BC"/>
<path fill-rule="evenodd" clip-rule="evenodd" d="M19.4591 8.98749C19.733 8.88662 20.0381 9.02922 20.1386 9.30399C20.2392 9.57876 20.097 9.88483 19.8232 9.98569C19.5493 10.0866 19.2442 9.94395 19.1436 9.66919C19.0431 9.39442 19.1852 9.08835 19.4591 8.98749Z" fill="#EF4136"/>
<path fill-rule="evenodd" clip-rule="evenodd" d="M28.8412 7.06738C29.2781 7.06738 29.6317 7.42215 29.6317 7.86038C29.6317 8.29862 29.2781 8.65338 28.8412 8.65338C28.4044 8.65338 28.0508 8.29862 28.0508 7.86038C28.0508 7.42215 28.4044 7.06738 28.8412 7.06738Z" fill="#1E4397"/>
<path fill-rule="evenodd" clip-rule="evenodd" d="M4.81576 20.9343C5.04804 20.5308 5.56115 20.3917 5.96332 20.6247C6.36549 20.8577 6.50417 21.3725 6.27188 21.776C6.03959 22.1794 5.52648 22.3185 5.12432 22.0855C4.72215 21.8525 4.58347 21.3377 4.81576 20.9343Z" fill="#EF4136"/>
<path fill-rule="evenodd" clip-rule="evenodd" d="M16.0385 19.5433C16.4684 19.1816 17.1132 19.2372 17.4738 19.6685C17.8343 20.0998 17.7789 20.7467 17.349 21.1084C16.9191 21.4702 16.2742 21.4145 15.9136 20.9832C15.5531 20.552 15.6086 19.9085 16.0385 19.5433Z" fill="#EF4136"/>
<path fill-rule="evenodd" clip-rule="evenodd" d="M22.0325 16.0759C22.5594 15.8846 23.1419 16.1559 23.3326 16.6846C23.5233 17.2133 23.2528 17.7976 22.7259 17.9889C22.1989 18.1802 21.6164 17.9089 21.4258 17.3802C21.2316 16.855 21.5055 16.2707 22.0325 16.0759Z" fill="#44C8F5"/>
<path fill-rule="evenodd" clip-rule="evenodd" d="M28.8413 13.9541C29.9091 13.9541 30.7723 14.8201 30.7723 15.8914C30.7723 16.9626 29.9091 17.8287 28.8413 17.8287C27.7734 17.8287 26.9102 16.9626 26.9102 15.8914C26.9102 14.8201 27.7734 13.9541 28.8413 13.9541Z" fill="#1E4397"/>
<path fill-rule="evenodd" clip-rule="evenodd" d="M18.5233 24.2312C19.0502 24.0399 19.6327 24.3112 19.8234 24.8399C20.0141 25.3685 19.7436 25.9528 19.2167 26.1441C18.6897 26.3354 18.1072 26.0641 17.9166 25.5355C17.7259 25.0103 17.9963 24.426 18.5233 24.2312Z" fill="#1E4397"/>
<path fill-rule="evenodd" clip-rule="evenodd" d="M9.64749 18.2599C9.87284 18.0721 10.2057 18.0999 10.3929 18.326C10.5801 18.5521 10.5524 18.886 10.327 19.0738C10.1017 19.2616 9.76883 19.2338 9.58161 19.0077C9.3944 18.7851 9.4256 18.4512 9.64749 18.2599Z" fill="#1C75BC"/>
<path fill-rule="evenodd" clip-rule="evenodd" d="M17.8708 13.6583C18.2799 13.5087 18.7341 13.7209 18.8832 14.1313C19.0323 14.5417 18.8208 14.9973 18.4117 15.1469C18.0026 15.2964 17.5484 15.0843 17.3993 14.6739C17.2503 14.2635 17.4617 13.8078 17.8708 13.6583Z" fill="#1C75BC"/>
<path fill-rule="evenodd" clip-rule="evenodd" d="M20.1598 19.7068C21.1617 19.3416 22.2712 19.8599 22.6352 20.865C22.9992 21.8702 22.4827 22.9832 21.4807 23.3484C20.4788 23.7136 19.3693 23.1953 19.0053 22.1902C18.6413 21.185 19.1578 20.072 20.1598 19.7068Z" fill="#EF4136"/>
<path fill-rule="evenodd" clip-rule="evenodd" d="M22.1849 25.2853C23.0031 24.9862 23.9114 25.4105 24.2096 26.2314C24.5077 27.0522 24.0848 27.9634 23.2666 28.2625C22.4484 28.5617 21.54 28.1373 21.2419 27.3165C20.9402 26.4957 21.3632 25.5844 22.1849 25.2853Z" fill="#F69891"/>
<path fill-rule="evenodd" clip-rule="evenodd" d="M69.9155 23.0461C70.7337 22.7469 71.6421 23.1713 71.9402 23.9921C72.2384 24.8129 71.8154 25.7242 70.9972 26.0233C70.1755 26.3224 69.2707 25.8981 68.9725 25.0773C68.6744 24.2564 69.0973 23.3452 69.9155 23.0461Z" fill="#EF4136"/>
<path fill-rule="evenodd" clip-rule="evenodd" d="M72.0984 22.3708C72.4659 22.6803 72.5145 23.2334 72.2059 23.602C71.8973 23.9707 71.3461 24.0194 70.9786 23.7099C70.6111 23.4003 70.5626 22.8473 70.8711 22.4786C71.1797 22.1099 71.7275 22.0612 72.0984 22.3708Z" fill="#1C75BC"/>
<path fill-rule="evenodd" clip-rule="evenodd" d="M63.6776 12.7749C64.1283 12.9383 64.3641 13.4427 64.1976 13.8948C64.0312 14.3504 63.532 14.5835 63.0813 14.4165C62.6306 14.2531 62.3948 13.7487 62.5612 13.2966C62.7242 12.8444 63.2234 12.6114 63.6776 12.7749Z" fill="#9AD9EA"/>
<path fill-rule="evenodd" clip-rule="evenodd" d="M72.1233 17.5049C72.5532 17.8666 72.6087 18.5101 72.2481 18.9414C71.8875 19.3726 71.2461 19.4283 70.8197 19.0666C70.3898 18.7049 70.3343 18.0614 70.6949 17.6336C71.052 17.1989 71.6934 17.1432 72.1233 17.5049Z" fill="#1E4397"/>
<path fill-rule="evenodd" clip-rule="evenodd" d="M60.9097 20.3995C61.3188 20.5491 61.5303 21.0047 61.3812 21.4151C61.2322 21.8255 60.778 22.0377 60.3689 21.8881C59.9598 21.7385 59.7483 21.2829 59.8974 20.8725C60.0465 20.4621 60.5006 20.2499 60.9097 20.3995Z" fill="#44C8F5"/>
<path fill-rule="evenodd" clip-rule="evenodd" d="M52.4933 6.64648C52.9752 6.64648 53.3635 7.03603 53.3635 7.51948C53.3635 8.00293 52.9752 8.39247 52.4933 8.39247C52.0114 8.39247 51.6231 8.00293 51.6231 7.51948C51.6196 7.03951 52.0114 6.64648 52.4933 6.64648Z" fill="#1E4397"/>
<path fill-rule="evenodd" clip-rule="evenodd" d="M62.0409 8.19451C62.5679 8.3858 62.8383 8.97012 62.6476 9.49878C62.4569 10.0274 61.8745 10.2987 61.3475 10.1074C60.8205 9.91615 60.5501 9.33184 60.7408 8.80317C60.9315 8.2745 61.5139 7.99974 62.0409 8.19451Z" fill="#1E4397"/>
<path fill-rule="evenodd" clip-rule="evenodd" d="M76.518 20.5973C76.7503 21.0008 76.6116 21.5156 76.2094 21.7486C75.8073 21.9816 75.2941 21.8425 75.0619 21.439C74.8296 21.0356 74.9682 20.5208 75.3704 20.2878C75.7726 20.0548 76.2857 20.1939 76.518 20.5973Z" fill="#44C8F5"/>
<path fill-rule="evenodd" clip-rule="evenodd" d="M56.3803 10.6152C56.8171 10.6152 57.1708 10.97 57.1708 11.4082C57.1708 11.8465 56.8171 12.2012 56.3803 12.2012C55.9435 12.2012 55.5898 11.8465 55.5898 11.4082C55.5898 10.9735 55.9435 10.6152 56.3803 10.6152Z" fill="#F69891"/>
<path fill-rule="evenodd" clip-rule="evenodd" d="M65.3864 19.0977C65.8787 19.5116 65.9411 20.2454 65.5285 20.7393C65.1159 21.2332 64.3844 21.2958 63.8921 20.8819C63.4033 20.468 63.3374 19.7342 63.75 19.2403C64.1625 18.7464 64.8941 18.6838 65.3864 19.0977Z" fill="#F69891"/>
<path fill-rule="evenodd" clip-rule="evenodd" d="M53.8693 18.833C54.8332 18.833 55.6132 19.6156 55.6132 20.5825C55.6132 21.5494 54.8332 22.3319 53.8693 22.3319C52.909 22.3319 52.1289 21.5494 52.1289 20.5825C52.1255 19.6156 52.9055 18.833 53.8693 18.833Z" fill="#44C8F5"/>
<path fill-rule="evenodd" clip-rule="evenodd" d="M61.8751 24.8163C62.357 25.6545 62.0727 26.7292 61.2337 27.2127C60.3981 27.6961 59.3268 27.4109 58.8449 26.5692C58.363 25.731 58.6508 24.6563 59.4863 24.1728C60.3253 23.6894 61.3932 23.9781 61.8751 24.8163Z" fill="#1E4397"/>
<path fill-rule="evenodd" clip-rule="evenodd" d="M76.4075 26.1342C76.4595 26.4229 76.2653 26.6976 75.9775 26.7498C75.6898 26.802 75.4159 26.6072 75.3639 26.3185C75.3119 26.0298 75.506 25.7551 75.7938 25.7029C76.0816 25.6507 76.3589 25.842 76.4075 26.1342Z" fill="#1C75BC"/>
<path fill-rule="evenodd" clip-rule="evenodd" d="M39.8905 4.72646C40.3446 4.55951 40.8439 4.79602 41.0068 5.24817C41.1698 5.70032 40.9375 6.20464 40.4868 6.36811C40.0361 6.53158 39.5334 6.29855 39.3704 5.8464C39.2075 5.39425 39.4398 4.89341 39.8905 4.72646Z" fill="#1C75BC"/>
<path fill-rule="evenodd" clip-rule="evenodd" d="M49.3908 2.9043C49.9525 2.9043 50.4066 3.35992 50.4066 3.92337C50.4066 4.48682 49.9525 4.94245 49.3908 4.94245C48.8292 4.94245 48.375 4.48682 48.375 3.92337C48.3785 3.35992 48.8326 2.9043 49.3908 2.9043Z" fill="#EF4136"/>
<path fill-rule="evenodd" clip-rule="evenodd" d="M67.2237 9.5885C67.5773 9.88762 67.6259 10.4198 67.3277 10.7745C67.0295 11.1293 66.4991 11.178 66.1455 10.8789C65.7918 10.5798 65.7433 10.0476 66.0415 9.69284C66.3396 9.33808 66.8701 9.29287 67.2237 9.5885Z" fill="#F69891"/>
<path fill-rule="evenodd" clip-rule="evenodd" d="M66.6409 20.9209C66.9217 21.4113 66.7553 22.0339 66.2664 22.3191C65.7776 22.6008 65.157 22.4338 64.8727 21.9434C64.5919 21.453 64.7583 20.8305 65.2472 20.5453C65.736 20.2635 66.3601 20.434 66.6409 20.9209Z" fill="#EF4136"/>
<path fill-rule="evenodd" clip-rule="evenodd" d="M42.656 12.3507C43.0651 12.2011 43.5193 12.4133 43.6684 12.8237C43.8174 13.2341 43.606 13.6897 43.1969 13.8393C42.7878 13.9888 42.3336 13.7767 42.1845 13.3663C42.0354 12.9559 42.2469 12.5002 42.656 12.3507Z" fill="#F69891"/>
<path fill-rule="evenodd" clip-rule="evenodd" d="M56.2508 12.003C56.854 12.2221 57.1626 12.8899 56.9442 13.4951C56.7258 14.1002 56.0601 14.4098 55.4569 14.1907C54.8536 13.9715 54.5451 13.3003 54.7635 12.6986C54.9854 12.0934 55.651 11.7838 56.2508 12.003Z" fill="#EF4136"/>
<path fill-rule="evenodd" clip-rule="evenodd" d="M59.0872 19.3203C59.8257 19.9429 59.9227 21.0489 59.3022 21.7898C58.6816 22.5306 57.5791 22.628 56.8406 22.0054C56.1022 21.3828 56.0051 20.2768 56.6257 19.536C57.2428 18.7951 58.3453 18.6978 59.0872 19.3203Z" fill="#9AD9EA"/>
<path fill-rule="evenodd" clip-rule="evenodd" d="M45.778 20.9445C46.3431 20.7393 46.9672 21.0315 47.1717 21.5949C47.3763 22.1619 47.0851 22.7879 46.5234 22.9931C45.9583 23.1983 45.3343 22.9062 45.1297 22.3392C44.9217 21.7793 45.2129 21.1532 45.778 20.9445Z" fill="#1C75BC"/>
<path fill-rule="evenodd" clip-rule="evenodd" d="M52.4143 18.9482C52.9759 18.9482 53.4301 19.4039 53.4301 19.9673C53.4301 20.5308 52.9759 20.9864 52.4143 20.9864C51.8526 20.9864 51.3984 20.5308 51.3984 19.9673C51.3984 19.4039 51.8561 18.9482 52.4143 18.9482Z" fill="#F69891"/>
<path fill-rule="evenodd" clip-rule="evenodd" d="M56.2021 22.7677C56.6736 23.1642 56.736 23.8668 56.3408 24.3398C55.9456 24.8128 55.2452 24.8754 54.7737 24.4789C54.3022 24.0824 54.2398 23.3799 54.635 22.9068C55.0303 22.4338 55.7306 22.3712 56.2021 22.7677Z" fill="#1E4397"/>
<path fill-rule="evenodd" clip-rule="evenodd" d="M69.0109 14.8311C69.1565 15.085 69.0698 15.4119 68.8167 15.558C68.5636 15.7041 68.2377 15.6171 68.0921 15.3632C67.9465 15.1093 68.0332 14.7824 68.2863 14.6363C68.5394 14.4902 68.8652 14.5772 69.0109 14.8311Z" fill="#44C8F5"/>
<path fill-rule="evenodd" clip-rule="evenodd" d="M69.6509 24.395C69.7272 24.8263 69.4395 25.2367 69.0096 25.3132C68.5797 25.3897 68.1706 25.101 68.0943 24.6697C68.018 24.2385 68.3058 23.8281 68.7357 23.7515C69.1656 23.6785 69.5747 23.9672 69.6509 24.395Z" fill="#44C8F5"/>
<path fill-rule="evenodd" clip-rule="evenodd" d="M27.3991 7.24482C27.7666 6.93527 28.3179 6.98396 28.6264 7.35264C28.935 7.72131 28.8865 8.27433 28.519 8.58388C28.1515 8.89342 27.6002 8.84473 27.2917 8.47606C26.9796 8.10738 27.0282 7.55784 27.3991 7.24482Z" fill="#44C8F5"/>
<path fill-rule="evenodd" clip-rule="evenodd" d="M35.703 2.27124C36.2299 2.07995 36.8124 2.35124 37.0031 2.8799C37.1937 3.40857 36.9233 3.99289 36.3963 4.18418C35.8694 4.37547 35.2869 4.10419 35.0962 3.57552C34.9056 3.05033 35.176 2.46601 35.703 2.27124Z" fill="#F69891"/>
<path fill-rule="evenodd" clip-rule="evenodd" d="M54.7398 2.43811C55.1767 2.5981 55.3985 3.08156 55.2425 3.51631C55.0831 3.95455 54.6012 4.18063 54.1678 4.02063C53.731 3.86064 53.5091 3.37719 53.6651 2.94243C53.8211 2.5042 54.303 2.27812 54.7398 2.43811Z" fill="#9AD9EA"/>
<path fill-rule="evenodd" clip-rule="evenodd" d="M58.054 13.286C58.484 13.6477 58.5394 14.2946 58.1789 14.7259C57.8183 15.1572 57.1734 15.2163 56.7435 14.8511C56.3136 14.4894 56.2582 13.8425 56.6187 13.4112C56.9793 12.9799 57.6241 12.9208 58.054 13.286Z" fill="#1C75BC"/>
<path fill-rule="evenodd" clip-rule="evenodd" d="M62.4958 18.6038C62.7766 19.0908 62.6102 19.7133 62.1249 19.9951C61.6395 20.2768 61.0189 20.1098 60.7381 19.6229C60.4573 19.136 60.6237 18.5134 61.109 18.2317C61.5979 17.95 62.2185 18.1169 62.4958 18.6038Z" fill="#1E4397"/>
<path fill-rule="evenodd" clip-rule="evenodd" d="M32.5962 13.4606C32.929 13.1789 33.4283 13.2241 33.7091 13.558C33.9899 13.8919 33.9448 14.3928 33.612 14.6745C33.2792 14.9562 32.7799 14.911 32.4991 14.5771C32.2183 14.2432 32.2634 13.7424 32.5962 13.4606Z" fill="#F69891"/>
<path fill-rule="evenodd" clip-rule="evenodd" d="M45.2513 8.46973C45.8927 8.46973 46.4127 8.99144 46.4127 9.63488C46.4127 10.2783 45.8927 10.8 45.2513 10.8C44.6099 10.8 44.0898 10.2783 44.0898 9.63488C44.0898 8.99144 44.6099 8.46973 45.2513 8.46973Z" fill="#1C75BC"/>
<path fill-rule="evenodd" clip-rule="evenodd" d="M34.3719 15.6685C35.1103 15.0494 36.2094 15.1433 36.8265 15.8842C37.4436 16.625 37.35 17.7275 36.6115 18.3466C35.8731 18.9657 34.774 18.8718 34.1569 18.131C33.5363 17.3936 33.6334 16.2911 34.3719 15.6685Z" fill="#1E4397"/>
<path fill-rule="evenodd" clip-rule="evenodd" d="M42.3528 14.6707C42.8798 14.4794 43.4622 14.7507 43.6529 15.2793C43.8436 15.808 43.5732 16.3923 43.0462 16.5836C42.5192 16.7749 41.9367 16.5036 41.7461 15.9749C41.5519 15.4497 41.8258 14.8654 42.3528 14.6707Z" fill="#1E4397"/>
<path fill-rule="evenodd" clip-rule="evenodd" d="M50.4094 14.3753C51.3177 14.7057 51.7858 15.7144 51.4529 16.6256C51.1236 17.5369 50.1182 18.0064 49.2133 17.6725C48.3049 17.3421 47.8369 16.3335 48.1697 15.4222C48.4991 14.5144 49.501 14.0449 50.4094 14.3753Z" fill="#1E4397"/>
<path fill-rule="evenodd" clip-rule="evenodd" d="M52.3619 20.0888C53.031 20.6522 53.1177 21.6505 52.556 22.3217C51.9944 22.993 50.9994 23.0799 50.3302 22.5165C49.6611 21.953 49.5744 20.9548 50.1361 20.2836C50.6977 19.6158 51.6962 19.5288 52.3619 20.0888Z" fill="#EF4136"/>
<path fill-rule="evenodd" clip-rule="evenodd" d="M53.7031 23.6438C54.0429 24.2351 53.8418 24.9933 53.2524 25.3341C52.6631 25.675 51.9073 25.4733 51.5675 24.882C51.2277 24.2907 51.4288 23.5325 52.0182 23.1916C52.6076 22.8473 53.3634 23.0525 53.7031 23.6438Z" fill="#F69891"/>
<path fill-rule="evenodd" clip-rule="evenodd" d="M55.4297 26.7917C55.5129 27.2577 55.2009 27.6994 54.7398 27.7829C54.2752 27.8664 53.8349 27.5534 53.7517 27.0908C53.6685 26.6247 53.9805 26.183 54.4416 26.0995C54.9062 26.0161 55.3465 26.3256 55.4297 26.7917Z" fill="#1C75BC"/>
<path fill-rule="evenodd" clip-rule="evenodd" d="M71.2949 18.9655C71.3782 19.4316 71.0661 19.8733 70.605 19.9567C70.1405 20.0402 69.7002 19.7272 69.617 19.2646C69.5337 18.7985 69.8458 18.3568 70.3069 18.2734C70.7714 18.1899 71.2117 18.4994 71.2949 18.9655Z" fill="#9AD9EA"/>
<path fill-rule="evenodd" clip-rule="evenodd" d="M38.4567 20.4685C38.9179 20.0824 39.6043 20.1415 39.9891 20.6041C40.374 21.0667 40.315 21.7554 39.8539 22.1414C39.3928 22.5275 38.7098 22.4684 38.3215 22.0058C37.9402 21.5432 37.9991 20.8545 38.4567 20.4685Z" fill="#EF4136"/>
<path fill-rule="evenodd" clip-rule="evenodd" d="M41.6614 18.6941C42.1884 18.5028 42.7708 18.7741 42.9615 19.3028C43.1522 19.8314 42.8817 20.4157 42.3548 20.607C41.8278 20.7983 41.2453 20.527 41.0547 19.9984C40.8605 19.4697 41.1344 18.8854 41.6614 18.6941Z" fill="#EF4136"/>
<path fill-rule="evenodd" clip-rule="evenodd" d="M52.1151 17.7422C52.4132 17.7422 52.6559 17.9857 52.6559 18.2848C52.6559 18.5839 52.4132 18.8273 52.1151 18.8273C51.8169 18.8273 51.5742 18.5839 51.5742 18.2848C51.5742 17.9857 51.8169 17.7422 52.1151 17.7422Z" fill="#1C75BC"/>
<path fill-rule="evenodd" clip-rule="evenodd" d="M48.8778 18.6044C49.4568 18.8165 49.755 19.4565 49.5435 20.0339C49.332 20.6147 48.6941 20.9138 48.1151 20.7016C47.5361 20.4895 47.2414 19.8495 47.4494 19.2722C47.6609 18.6913 48.2988 18.3922 48.8778 18.6044Z" fill="#44C8F5"/>
<path fill-rule="evenodd" clip-rule="evenodd" d="M33.8205 19.766C34.2504 19.4043 34.8917 19.4599 35.2523 19.8912C35.6129 20.3225 35.5574 20.9659 35.1275 21.3276C34.6976 21.6893 34.0597 21.6337 33.6991 21.2024C33.3385 20.7711 33.394 20.1242 33.8205 19.766Z" fill="#EF4136"/>
<path fill-rule="evenodd" clip-rule="evenodd" d="M31.4143 22.5305C31.7124 22.0088 32.3781 21.8314 32.8981 22.1306C33.4182 22.4297 33.595 23.0975 33.2968 23.6192C32.9987 24.1409 32.333 24.3183 31.813 24.0191C31.2929 23.7166 31.1161 23.0522 31.4143 22.5305Z" fill="#1C75BC"/>
<path fill-rule="evenodd" clip-rule="evenodd" d="M49.5234 22.6489C49.7591 23.0593 49.617 23.581 49.2113 23.8175C48.8022 24.054 48.2822 23.9149 48.0464 23.5045C47.8107 23.0976 47.9494 22.5724 48.3585 22.3359C48.7676 22.0994 49.2876 22.2385 49.5234 22.6489Z" fill="#1E4397"/>
<path fill-rule="evenodd" clip-rule="evenodd" d="M47.4606 19.5962C47.9841 20.0344 48.0499 20.817 47.6131 21.3387C47.1763 21.8639 46.3962 21.93 45.8727 21.4918C45.3492 21.05 45.2833 20.271 45.7201 19.7458C46.1604 19.2275 46.937 19.158 47.4606 19.5962Z" fill="#1E4397"/>
<path fill-rule="evenodd" clip-rule="evenodd" d="M44.3527 17.4045C43.5345 17.1053 42.6261 17.5297 42.328 18.3505C42.0298 19.1748 42.4528 20.0826 43.271 20.3817C44.0927 20.6808 44.9975 20.2565 45.2957 19.4357C45.5973 18.6114 45.1743 17.7036 44.3527 17.4045Z" fill="#9AD9EA"/>
<path fill-rule="evenodd" clip-rule="evenodd" d="M40.1888 9.5752C41.156 9.5752 41.9361 10.3612 41.9361 11.3281C41.9361 12.295 41.1526 13.0811 40.1888 13.0811C39.2249 13.0811 38.4414 12.295 38.4414 11.3281C38.4414 10.3612 39.2249 9.5752 40.1888 9.5752Z" fill="#9AD9EA"/>
<path fill-rule="evenodd" clip-rule="evenodd" d="M31.349 16.806C31.7789 16.4443 32.4203 16.4999 32.7809 16.9312C33.1414 17.3625 33.0859 18.0059 32.656 18.3677C32.2261 18.7294 31.5848 18.6737 31.2242 18.2425C30.8636 17.8112 30.9191 17.1677 31.349 16.806Z" fill="#44C8F5"/>
<path fill-rule="evenodd" clip-rule="evenodd" d="M26.8059 19.7065C27.2878 18.8717 28.3521 18.5831 29.1877 19.0665C30.0198 19.55 30.3075 20.6177 29.8256 21.4525C29.3437 22.2872 28.2793 22.5759 27.4473 22.0924C26.6117 21.6125 26.324 20.5447 26.8059 19.7065Z" fill="#EF4136"/>
<path fill-rule="evenodd" clip-rule="evenodd" d="M58.1658 23.0562C58.6026 23.8145 58.3426 24.7848 57.5868 25.2196C56.831 25.6578 55.8637 25.397 55.4269 24.6388C54.99 23.8805 55.2501 22.9102 56.0059 22.4754C56.7651 22.0372 57.7289 22.298 58.1658 23.0562Z" fill="#EF4136"/>
<path fill-rule="evenodd" clip-rule="evenodd" d="M46.7791 13.2901C47.209 13.6518 47.2645 14.2952 46.9039 14.7265C46.5433 15.1578 45.902 15.2135 45.4721 14.8517C45.0421 14.49 44.9867 13.8466 45.3472 13.4188C45.7113 12.984 46.3492 12.9284 46.7791 13.2901Z" fill="#1C75BC"/>
<path fill-rule="evenodd" clip-rule="evenodd" d="M33.7088 8.92191C34.3121 8.70279 34.9777 9.01234 35.1961 9.61752C35.4146 10.2227 35.106 10.8905 34.5027 11.1096C33.8995 11.3287 33.2338 11.0192 33.0154 10.414C32.797 9.81229 33.1056 9.1445 33.7088 8.92191Z" fill="#1E4397"/>
<path fill-rule="evenodd" clip-rule="evenodd" d="M23.5205 17.957C23.7389 17.5779 24.2208 17.4492 24.5987 17.6683C24.9766 17.8874 25.1049 18.3709 24.8865 18.75C24.6681 19.1291 24.1862 19.2578 23.8083 19.0387C23.4304 18.8196 23.3021 18.3361 23.5205 17.957Z" fill="#F69891"/>
<path fill-rule="evenodd" clip-rule="evenodd" d="M58.6092 17.3833C59.1431 18.312 58.8241 19.4945 57.9019 20.0301C56.9762 20.5658 55.7975 20.2458 55.2636 19.3206C54.7297 18.392 55.0452 17.2094 55.9708 16.6738C56.893 16.1382 58.0753 16.4582 58.6092 17.3833Z" fill="#F69891"/>
<path fill-rule="evenodd" clip-rule="evenodd" d="M64.492 24.1035C65.0259 25.0321 64.7104 26.2147 63.7847 26.7503C62.8625 27.2859 61.6803 26.9694 61.1464 26.0408C60.6125 25.1121 60.928 23.9296 61.8536 23.3939C62.7759 22.8618 63.9581 23.1783 64.492 24.1035Z" fill="#9AD9EA"/>
<path fill-rule="evenodd" clip-rule="evenodd" d="M53.3709 12.5285C53.8008 12.8902 53.8563 13.5337 53.4957 13.9615C53.1351 14.3927 52.4938 14.4484 52.0638 14.0867C51.6339 13.725 51.5785 13.0815 51.939 12.6537C52.2996 12.2259 52.941 12.1668 53.3709 12.5285Z" fill="#1E4397"/>
<path fill-rule="evenodd" clip-rule="evenodd" d="M47.3833 9.05678C47.9138 9.25155 48.1842 9.83586 47.9935 10.368C47.7994 10.8967 47.2169 11.1714 46.6865 10.9801C46.1595 10.7854 45.8856 10.2011 46.0763 9.66892C46.2704 9.13677 46.8529 8.862 47.3833 9.05678Z" fill="#F69891"/>
<path fill-rule="evenodd" clip-rule="evenodd" d="M40.5714 0C41.036 0 41.4104 0.375632 41.4104 0.841693C41.4104 1.30775 41.036 1.68339 40.5714 1.68339C40.1069 1.68339 39.7324 1.30775 39.7324 0.841693C39.7324 0.375632 40.1069 0 40.5714 0Z" fill="#1E4397"/>
<path fill-rule="evenodd" clip-rule="evenodd" d="M22.625 6.37535C23.0549 6.01363 23.6963 6.06928 24.0534 6.50056C24.4139 6.93184 24.3585 7.57528 23.9286 7.93352C23.4987 8.29524 22.8573 8.23959 22.4967 7.80831C22.1396 7.38051 22.1951 6.73707 22.625 6.37535Z" fill="#9AD9EA"/>
<path fill-rule="evenodd" clip-rule="evenodd" d="M16.5161 13.9023C16.7553 13.4849 17.2892 13.3423 17.7052 13.5823C18.1213 13.8223 18.2634 14.3579 18.0242 14.7753C17.785 15.1926 17.2511 15.3352 16.835 15.0953C16.419 14.8518 16.2734 14.3196 16.5161 13.9023Z" fill="#44C8F5"/>
<path fill-rule="evenodd" clip-rule="evenodd" d="M64.5545 13.9394C64.7729 14.3185 64.6446 14.802 64.2667 15.0211C63.8888 15.2402 63.4069 15.1115 63.1885 14.7324C62.9701 14.3533 63.0983 13.8699 63.4762 13.6507C63.8507 13.4316 64.3361 13.5603 64.5545 13.9394Z" fill="#44C8F5"/>
<path fill-rule="evenodd" clip-rule="evenodd" d="M58.2031 6.7506C58.4285 6.93841 58.4562 7.27578 58.269 7.49838C58.0818 7.72445 57.7455 7.75228 57.5236 7.56446C57.2983 7.37665 57.2705 7.03928 57.4577 6.81668C57.645 6.59061 57.9813 6.5593 58.2031 6.7506Z" fill="#44C8F5"/>
<path fill-rule="evenodd" clip-rule="evenodd" d="M45.2958 2.86248C45.5697 2.96335 45.7118 3.26942 45.6113 3.54419C45.5108 3.81895 45.2057 3.96156 44.9318 3.86069C44.6579 3.75983 44.5157 3.45376 44.6163 3.17899C44.7168 2.90422 45.0184 2.76162 45.2958 2.86248Z" fill="#1C75BC"/>
<path fill-rule="evenodd" clip-rule="evenodd" d="M53.7136 7.44307C54.0464 7.72479 54.0915 8.22563 53.8106 8.55953C53.5298 8.89342 53.034 8.93864 52.6978 8.65691C52.3649 8.37519 52.3199 7.87435 52.6007 7.54045C52.8815 7.20656 53.3773 7.16134 53.7136 7.44307Z" fill="#44C8F5"/>
<path fill-rule="evenodd" clip-rule="evenodd" d="M8.56018 23.8869C8.64339 23.4104 9.0941 23.0939 9.56907 23.1774C10.044 23.2609 10.3595 23.713 10.2763 24.1895C10.1931 24.666 9.74242 24.9825 9.26744 24.8991C8.79247 24.8156 8.47698 24.36 8.56018 23.8869Z" fill="#F69891"/>
<path fill-rule="evenodd" clip-rule="evenodd" d="M11.7322 14.7191C12.013 14.2321 12.6336 14.0652 13.119 14.3469C13.6044 14.6286 13.7708 15.2512 13.49 15.7381C13.2091 16.2251 12.5886 16.392 12.1032 16.1103C11.6178 15.832 11.4514 15.206 11.7322 14.7191Z" fill="#1E4397"/>
<path fill-rule="evenodd" clip-rule="evenodd" d="M26.4213 2.56995C26.8581 2.40996 27.3401 2.63603 27.4961 3.07427C27.6555 3.51251 27.4302 3.99596 26.9934 4.15247C26.5565 4.31246 26.0746 4.08639 25.9186 3.64815C25.7626 3.21339 25.9879 2.72994 26.4213 2.56995Z" fill="#9AD9EA"/>
<path fill-rule="evenodd" clip-rule="evenodd" d="M35.9099 8.74414C36.4716 8.74414 36.9292 9.20325 36.9292 9.76669C36.9292 10.3301 36.4716 10.7892 35.9099 10.7892C35.3483 10.7892 34.8906 10.3301 34.8906 9.76669C34.8906 9.20325 35.3483 8.74414 35.9099 8.74414Z" fill="#EF4136"/>
<path fill-rule="evenodd" clip-rule="evenodd" d="M42.7225 9.95055C43.2495 10.1418 43.5199 10.7262 43.3292 11.2548C43.1386 11.7835 42.5561 12.0548 42.0291 11.8635C41.5022 11.6687 41.2317 11.0879 41.4224 10.5592C41.6131 10.034 42.1955 9.75925 42.7225 9.95055Z" fill="#EF4136"/>
<path fill-rule="evenodd" clip-rule="evenodd" d="M49.2992 12.7158C50.1174 13.4045 50.2214 14.6253 49.5384 15.4461C48.852 16.2669 47.635 16.3712 46.8168 15.6861C45.9986 14.9974 45.8946 13.7766 46.5776 12.9558C47.2641 12.135 48.4845 12.0306 49.2992 12.7158Z" fill="#F69891"/>
<path fill-rule="evenodd" clip-rule="evenodd" d="M23.0171 13.3104C23.5094 12.8965 24.2409 12.9626 24.6535 13.453C25.0661 13.9469 25.0002 14.6808 24.5114 15.0947C24.0191 15.5085 23.2875 15.4425 22.875 14.952C22.4624 14.4582 22.5283 13.7243 23.0171 13.3104Z" fill="#F69891"/>
<path fill-rule="evenodd" clip-rule="evenodd" d="M36.7186 13.8045C37.2456 13.9958 37.5195 14.5801 37.3253 15.1088C37.1347 15.6374 36.5522 15.9087 36.0252 15.7174C35.4982 15.5226 35.2278 14.9418 35.4185 14.4097C35.6092 13.8845 36.1916 13.6132 36.7186 13.8045Z" fill="#1C75BC"/>
<path fill-rule="evenodd" clip-rule="evenodd" d="M44.8287 15.9605C45.4978 16.524 45.5845 17.5222 45.0228 18.1934C44.4612 18.8647 43.4662 18.9517 42.797 18.3882C42.1279 17.8248 42.0412 16.8266 42.6029 16.1553C43.1645 15.484 44.163 15.3971 44.8287 15.9605Z" fill="#EF4136"/>
<path fill-rule="evenodd" clip-rule="evenodd" d="M23.4861 21.5286C23.7669 21.0417 24.3875 20.8748 24.8729 21.1565C25.3583 21.4382 25.5247 22.0608 25.2439 22.5477C24.963 23.0346 24.3425 23.2016 23.8571 22.9199C23.3717 22.6381 23.2053 22.0156 23.4861 21.5286Z" fill="#1E4397"/>
<path fill-rule="evenodd" clip-rule="evenodd" d="M39.5792 18.6215C40.2206 18.8546 40.5499 19.5676 40.3177 20.2075C40.0854 20.851 39.3781 21.1814 38.7367 20.9484C38.0953 20.7153 37.766 20.0023 37.9983 19.3624C38.2271 18.7189 38.9378 18.3885 39.5792 18.6215Z" fill="#F69891"/>
<path fill-rule="evenodd" clip-rule="evenodd" d="M42.5528 20.7812C42.9134 21.0837 42.9619 21.6228 42.6568 21.9846C42.3552 22.3463 41.8178 22.395 41.4572 22.0889C41.0967 21.7863 41.0481 21.2472 41.3532 20.8855C41.6583 20.5238 42.1957 20.4786 42.5528 20.7812Z" fill="#F69891"/>
<path fill-rule="evenodd" clip-rule="evenodd" d="M25.5031 26.8817C25.6071 26.2869 26.1722 25.8939 26.7616 25.9982C27.3544 26.1026 27.7496 26.6695 27.6422 27.2608C27.5382 27.8555 26.973 28.252 26.3837 28.1442C25.7908 28.0433 25.399 27.4764 25.5031 26.8817Z" fill="#EF4136"/>
<path fill-rule="evenodd" clip-rule="evenodd" d="M26.8201 23.4593C27.1009 22.9724 27.7215 22.8054 28.2069 23.0871C28.6923 23.3689 28.8587 23.9914 28.5779 24.4784C28.297 24.9653 27.6764 25.1323 27.1911 24.8505C26.7057 24.5688 26.5393 23.9462 26.8201 23.4593Z" fill="#9AD9EA"/>
<path fill-rule="evenodd" clip-rule="evenodd" d="M13.3582 17.9295C13.587 17.7382 13.9268 17.766 14.1175 17.9956C14.3082 18.2251 14.2804 18.566 14.0516 18.7573C13.8228 18.9485 13.483 18.9207 13.2923 18.6912C13.1017 18.4616 13.1294 18.1208 13.3582 17.9295Z" fill="#9AD9EA"/>
<path fill-rule="evenodd" clip-rule="evenodd" d="M32.2867 18.7362C32.8657 18.524 33.5036 18.8232 33.7151 19.404C33.9266 19.9848 33.6284 20.6248 33.0494 20.837C32.4705 21.0456 31.8325 20.75 31.6245 20.1692C31.4096 19.5883 31.7077 18.9449 32.2867 18.7362Z" fill="#F69891"/>
<path fill-rule="evenodd" clip-rule="evenodd" d="M31.841 3.6416C32.1322 3.6416 32.3714 3.87811 32.3714 4.17375C32.3714 4.46938 32.1357 4.70589 31.841 4.70589C31.5463 4.70589 31.3105 4.4659 31.3105 4.17375C31.3105 3.88159 31.5463 3.6416 31.841 3.6416Z" fill="#EF4136"/>
<path fill-rule="evenodd" clip-rule="evenodd" d="M41.6793 5.39461C42.0884 5.54417 42.2999 5.9998 42.1508 6.41021C42.0017 6.82062 41.5475 7.03278 41.1384 6.88323C40.7293 6.73367 40.5178 6.27804 40.6669 5.86763C40.816 5.45722 41.2702 5.24506 41.6793 5.39461Z" fill="#44C8F5"/>
<path fill-rule="evenodd" clip-rule="evenodd" d="M4.34367 26.2974C4.44075 25.7444 4.96772 25.3722 5.51897 25.4696C6.07021 25.567 6.44118 26.0956 6.3441 26.6487C6.24703 27.2017 5.72005 27.5703 5.16881 27.4764C4.61409 27.379 4.2466 26.8539 4.34367 26.2974Z" fill="#1E4397"/>
<path fill-rule="evenodd" clip-rule="evenodd" d="M14.0079 9.84303C14.365 9.54391 14.892 9.58913 15.1902 9.94737C15.4883 10.3021 15.4432 10.8343 15.0862 11.1334C14.7325 11.4325 14.2021 11.3838 13.9039 11.0291C13.6058 10.6708 13.6508 10.1421 14.0079 9.84303Z" fill="#F69891"/>
<path fill-rule="evenodd" clip-rule="evenodd" d="M25.0281 12.3859C25.5551 12.1911 26.141 12.4659 26.3351 12.998C26.5258 13.5302 26.2554 14.1145 25.7249 14.3092C25.1945 14.504 24.6121 14.2293 24.4179 13.6971C24.2238 13.165 24.4976 12.5806 25.0281 12.3859Z" fill="#1E4397"/>
<path fill-rule="evenodd" clip-rule="evenodd" d="M31.84 11.1855C32.4017 11.1855 32.8559 11.6412 32.8559 12.2046C32.8559 12.7681 32.4017 13.2237 31.84 13.2237C31.2784 13.2237 30.8242 12.7681 30.8242 12.2046C30.8242 11.6412 31.2784 11.1855 31.84 11.1855Z" fill="#1C75BC"/>
<path fill-rule="evenodd" clip-rule="evenodd" d="M38.9612 11.5262C39.9631 11.8914 40.4797 13.0044 40.1157 14.0095C39.7516 15.0147 38.6422 15.5329 37.6403 15.1677C36.6383 14.8025 36.1217 13.6895 36.4858 12.6844C36.8498 11.6792 37.9592 11.161 38.9612 11.5262Z" fill="#9AD9EA"/>
<path fill-rule="evenodd" clip-rule="evenodd" d="M14.4678 21.1013C14.7867 20.5448 15.4974 20.3535 16.0522 20.677C16.6069 20.9969 16.7976 21.7099 16.4786 22.2664C16.1596 22.8229 15.4489 23.0142 14.8942 22.6942C14.336 22.3708 14.1488 21.6578 14.4678 21.1013Z" fill="#F69891"/>
<path fill-rule="evenodd" clip-rule="evenodd" d="M13.3069 25.282C13.6258 24.7255 14.3365 24.5342 14.8912 24.8576C15.446 25.1811 15.6366 25.8906 15.3177 26.4471C14.9987 27.0036 14.288 27.1949 13.7333 26.8749C13.1786 26.5514 12.9879 25.8384 13.3069 25.282Z" fill="#44C8F5"/>
<path fill-rule="evenodd" clip-rule="evenodd" d="M36.9367 17.105C37.7549 17.4042 38.1778 18.3119 37.8797 19.1362C37.5815 19.9605 36.6766 20.3814 35.855 20.0823C35.0368 19.7832 34.6138 18.8754 34.912 18.0511C35.2101 17.2268 36.1185 16.8059 36.9367 17.105Z" fill="#EF4136"/>
<path fill-rule="evenodd" clip-rule="evenodd" d="M22.1438 19.5713C22.8857 18.9487 23.9882 19.0461 24.6088 19.787C25.2294 20.5278 25.1323 21.6338 24.3939 22.2564C23.6554 22.879 22.5494 22.7816 21.9323 22.0407C21.3152 21.2999 21.4053 20.1974 22.1438 19.5713Z" fill="#1C75BC"/>
<path fill-rule="evenodd" clip-rule="evenodd" d="M20.2806 17.8146C21.0988 17.5155 22.0071 17.9398 22.3053 18.7607C22.6034 19.5815 22.1805 20.4927 21.3623 20.7918C20.5441 21.091 19.6357 20.6666 19.3376 19.8458C19.0359 19.0215 19.4589 18.1137 20.2806 17.8146Z" fill="#9AD9EA"/>
<path fill-rule="evenodd" clip-rule="evenodd" d="M31.8417 20.4092C32.5246 20.4092 33.0759 20.9622 33.0759 21.6474C33.0759 22.3326 32.5246 22.8856 31.8417 22.8856C31.1587 22.8856 30.6074 22.3326 30.6074 21.6474C30.6074 20.9622 31.1587 20.4092 31.8417 20.4092Z" fill="#1E4397"/>
<path fill-rule="evenodd" clip-rule="evenodd" d="M35.3737 21.4181C35.8175 21.5781 36.0428 22.0685 35.8834 22.5137C35.7239 22.9589 35.235 23.185 34.7913 23.025C34.3475 22.8615 34.1221 22.3711 34.2816 21.9294C34.4446 21.4877 34.9334 21.2581 35.3737 21.4181Z" fill="#44C8F5"/>
<path fill-rule="evenodd" clip-rule="evenodd" d="M23.1587 25.0106C23.3078 24.7497 23.6372 24.6627 23.8972 24.8123C24.1538 24.9619 24.2439 25.2923 24.0948 25.5531C23.9457 25.814 23.6164 25.9009 23.3564 25.7514C23.0963 25.6018 23.0097 25.2679 23.1587 25.0106Z" fill="#EF4136"/>
<path fill-rule="evenodd" clip-rule="evenodd" d="M25.0276 23.0177C25.4991 22.6212 26.1995 22.6838 26.5947 23.1568C26.9899 23.6299 26.9275 24.3324 26.456 24.7289C25.9845 25.1254 25.2842 25.0628 24.889 24.5898C24.4937 24.1203 24.5561 23.4142 25.0276 23.0177Z" fill="#44C8F5"/>
<path d="M10.283 56.6058C9.37465 57.5936 7.88732 58.0874 5.82102 58.0874C2.22232 58.0874 0.301625 56.3971 0.0554713 53.0129C0.0208017 52.4425 0 47.9419 0 39.5041C0 39.278 0.104009 39.1633 0.312026 39.1633H3.26587C3.43575 39.1633 3.52936 39.2676 3.55016 39.4763C3.60563 40.6345 3.63684 43.097 3.63684 46.8568C3.63684 50.62 3.65764 52.7104 3.69231 53.1277C3.76858 53.9451 4.07021 54.5676 4.60065 54.9954C5.13109 55.4232 5.81408 55.6354 6.64615 55.6354C7.51636 55.6354 8.20282 55.3815 8.70553 54.8807C9.20823 54.3763 9.49599 53.6599 9.57226 52.7277C9.64854 51.34 9.66587 48.2723 9.62774 43.5213C9.5896 38.7702 9.54106 35.9774 9.48559 35.1426C9.46479 34.9513 9.54106 34.8574 9.71441 34.8574H11.3889C11.5207 34.8574 11.5866 34.9339 11.5866 35.0835C11.6802 44.4708 11.7183 50.1227 11.701 52.0391C11.6663 54.0981 11.1913 55.618 10.283 56.6058Z" fill="#1E4397"/>
<path d="M26.3629 37.3087C25.8706 37.3469 24.8895 37.3643 23.4229 37.3643C21.9564 37.3643 21.107 37.3852 20.8817 37.42C20.7673 37.42 20.7118 37.4965 20.7118 37.646L20.7985 56.6259C20.7985 56.8728 20.6771 56.998 20.431 56.998C20.3166 57.0154 19.9491 57.0224 19.325 57.0119C18.701 57.005 18.2849 56.998 18.0769 56.998C17.7545 56.998 17.595 56.8554 17.595 56.5702C17.6886 54.1947 17.6713 48.362 17.5395 39.0721H13.3237C13.0013 39.0721 12.8418 38.9399 12.8418 38.6721V35.8792C12.8418 35.7262 12.8799 35.6079 12.9562 35.5244C13.0325 35.4375 13.1365 35.4062 13.2682 35.4236C14.2147 35.4827 16.2429 35.5001 19.3493 35.4827C22.4557 35.4618 24.7924 35.4618 26.3664 35.4827C26.5571 35.4827 26.6507 35.587 26.6507 35.7957V36.9643C26.6472 37.1765 26.5536 37.2913 26.3629 37.3087Z" fill="#1E4397"/>
<path d="M33.6632 58.3128C32.7722 59.9475 31.1739 60.7649 28.8614 60.7649C27.1176 60.7649 25.7932 60.4762 24.8848 59.8954C23.9765 59.3145 23.3282 58.3128 22.9399 56.8868C22.5516 55.4608 22.3574 53.3705 22.3574 50.6159C22.3574 46.6057 22.8081 43.7745 23.7061 42.1224C24.6075 40.4704 26.0879 39.6426 28.1507 39.6426C29.6103 39.6426 30.7752 39.7852 31.6454 40.0704C32.5156 40.3556 33.209 40.8877 33.7186 41.6668C34.2317 42.4459 34.5715 43.4163 34.7414 44.5745C34.9113 45.7327 34.9979 47.3013 34.9979 49.2768C34.9979 53.6696 34.5542 56.6816 33.6632 58.3128ZM32.1585 43.9345C31.6281 42.9363 30.6053 42.4389 29.0903 42.4389C27.8976 42.4389 27.0482 43.0789 26.549 44.3623C26.0463 45.6457 25.7966 47.8334 25.7966 50.9324C25.7966 53.9722 26.0636 56.0243 26.5906 57.0886C27.121 58.1529 28.0502 58.685 29.3745 58.685C30.2448 58.685 30.9312 58.4381 31.4339 57.9442C31.9366 57.4503 32.3145 56.5564 32.5711 55.2661C32.8276 53.9722 32.9559 52.1775 32.9559 49.8785C32.9524 46.9152 32.689 44.9327 32.1585 43.9345Z" fill="#1E4397"/>
<path d="M46.2344 37.1389C45.2776 36.0955 43.6342 35.5703 41.3044 35.5703C39.9974 35.5703 38.4338 35.7686 36.6171 36.1685C36.3883 36.2242 36.2773 36.3877 36.2773 36.652L36.364 56.8596C36.364 57.0856 36.4784 57.2004 36.7038 57.2004C37.8201 57.2004 38.5794 57.1935 38.9781 57.1726C39.2243 57.1726 39.3491 57.0509 39.3491 56.8039V48.9644C39.3491 48.7557 39.4427 48.6513 39.6334 48.6513C42.3965 48.6513 44.4282 48.0774 45.7283 46.9262C47.0249 45.7784 47.6732 44.0707 47.6732 41.81C47.6698 39.7405 47.1913 38.1823 46.2344 37.1389ZM41.3183 46.7732C40.5972 46.7732 40.0009 46.7453 39.5293 46.6862C39.4149 46.648 39.3595 46.5645 39.3595 46.4288V37.9911C40.2123 37.7615 41.034 37.6502 41.8314 37.6502C44.1231 37.6502 45.2672 39.0762 45.2672 41.9247C45.2672 45.1176 43.9497 46.7349 41.3183 46.7732Z" fill="#1E4397"/>
<path d="M49.8592 36.6546C49.7067 36.7312 49.5853 36.7207 49.4882 36.6268L48.9474 35.9416C48.8157 35.7712 48.8261 35.639 48.9751 35.5417C49.1831 35.4269 49.672 35.1452 50.4382 34.7C51.2044 34.2548 51.9671 33.8131 52.7264 33.3748L53.8635 32.7209C54.0334 32.627 54.1756 32.6653 54.29 32.8357C54.3281 32.874 54.4044 33.0096 54.5153 33.2496C54.6298 33.4861 54.6956 33.6252 54.713 33.6635C54.7892 33.7957 54.7511 33.9104 54.5985 34.0043C52.4421 35.2982 50.8612 36.1816 49.8592 36.6546ZM51.7314 59.0569L49.7413 59.0847C49.4952 59.0847 49.3357 59.0464 49.2594 58.9699C49.1832 58.8934 49.145 58.7404 49.145 58.5143C49.145 56.577 49.1589 53.9406 49.1866 50.6052C49.2144 47.2697 49.2352 44.929 49.2421 43.5795C49.2525 42.23 49.2282 40.6231 49.1728 38.7623C49.1519 38.3832 49.3253 38.1919 49.6859 38.1919C50.5387 38.1919 51.3049 38.2128 51.9879 38.2476C52.1786 38.2685 52.3034 38.3102 52.3728 38.3763C52.4386 38.4424 52.4733 38.5815 52.4733 38.7902C52.4733 39.2458 52.449 41.0474 52.404 44.1916C52.3554 47.3358 52.3138 50.3756 52.2757 53.3111C52.2375 56.2466 52.2375 57.9822 52.2757 58.5143C52.2895 58.876 52.1127 59.0569 51.7314 59.0569Z" fill="#1E4397"/>
<path d="M68.5202 57.8016C68.0279 55.2 67.071 51.2663 65.6496 46.0005C64.2281 40.7382 63.4065 37.5279 63.1776 36.3662C63.1395 36.1367 62.9592 36.0254 62.6368 36.0254L59.7662 36.0532C59.5408 36.0532 59.3987 36.1854 59.3397 36.4532C59.3016 36.6062 59.0277 37.5001 58.5146 39.1313C58.005 40.766 57.5716 42.1677 57.2214 43.3363C56.8713 44.5049 56.4448 45.9483 55.9421 47.6665C55.4394 49.3881 54.9922 50.995 54.5935 52.4975C54.1948 54.0001 53.8654 55.3182 53.5985 56.4591C53.543 56.7443 53.647 56.9147 53.9105 56.9738L55.1031 57.1999C55.3285 57.2173 55.4637 57.1442 55.5018 56.9738L56.8366 52.0141C56.8921 51.8437 56.9961 51.7567 57.1486 51.7567L63.4273 51.6419L65.0741 58.5389C65.1295 58.7685 65.2925 58.8624 65.556 58.8241C66.7694 58.6537 67.6292 58.4902 68.1423 58.3372C68.2741 58.2989 68.3573 58.2711 68.385 58.2537C68.4128 58.2363 68.4544 58.1877 68.5133 58.1111C68.5792 58.0381 68.5792 57.9338 68.5202 57.8016ZM57.5334 49.9342C57.5716 49.802 57.8177 48.9812 58.2719 47.4682C58.7261 45.9588 59.1733 44.491 59.6067 43.065C60.0435 41.639 60.3451 40.7104 60.515 40.2721C62.0301 45.4197 62.883 48.6404 63.0736 49.9342H57.5334Z" fill="#1E4397"/>
<path d="M79.6561 44.9753C79.6006 45.2014 79.4377 45.3161 79.1742 45.3161H76.3902C76.1441 45.3161 76.0297 45.2014 76.0505 44.9753C76.1441 44.0814 76.1926 43.3406 76.1926 42.7528C76.1926 39.9599 75.3293 38.5652 73.6063 38.5652C72.8297 38.5652 72.2229 38.8609 71.7896 39.4486C71.3527 40.0364 71.1378 40.8155 71.1378 41.7859C71.1378 43.438 71.8763 44.7318 73.3532 45.664C74.2615 46.2135 75.3605 46.9369 76.6502 47.8308C78.8864 49.3507 80.0028 51.1558 80.0028 53.2461C80.0028 54.8982 79.5382 56.206 78.6091 57.1659C77.6799 58.1259 76.2515 58.6058 74.3205 58.6058C72.4067 58.6058 70.9436 57.9311 69.9313 56.5816C68.9189 55.2321 68.4301 53.514 68.4682 51.4236C68.4682 51.1941 68.5549 51.0723 68.7248 51.055C68.8565 51.0341 69.1235 51.0167 69.5187 50.9958C69.914 50.975 70.1428 50.968 70.2017 50.968C70.4097 50.968 70.5137 51.0619 70.5137 51.2532C70.5137 52.9992 70.8743 54.3278 71.592 55.2286C72.3096 56.1329 73.3046 56.5816 74.5735 56.5816C75.4819 56.5816 76.1649 56.3347 76.619 55.8408C77.0732 55.3469 77.302 54.6826 77.302 53.8479C77.302 53.2774 77.094 52.6897 76.678 52.081C76.2619 51.4723 75.7766 50.9611 75.2288 50.5437C74.7746 50.2028 74.0674 49.7472 73.114 49.1768C72.1571 48.6064 71.481 48.1786 71.0823 47.8934C69.0195 46.4291 67.9863 44.4814 67.9863 42.0502C67.9863 37.8313 70.0804 35.7236 74.265 35.7236C76.2724 35.7236 77.7319 36.3114 78.6403 37.4905C79.5486 38.6696 79.9924 40.2277 79.9751 42.165C79.9681 43.1632 79.8641 44.1023 79.6561 44.9753Z" fill="#1E4397"/>
<path fill-rule="evenodd" clip-rule="evenodd" d="M71.2214 72.5524C70.8886 72.8341 70.3893 72.7889 70.1085 72.455C69.8277 72.1211 69.8727 71.6203 70.2056 71.3386C70.5384 71.0568 71.0376 71.1021 71.3185 71.436C71.5993 71.7699 71.5577 72.2707 71.2214 72.5524Z" fill="#9AD9EA"/>
<path fill-rule="evenodd" clip-rule="evenodd" d="M39.8885 79.8014C39.3615 79.6101 39.0911 79.0258 39.2818 78.4971C39.4725 77.9684 40.0549 77.6971 40.5819 77.8884C41.1089 78.0797 41.3793 78.664 41.1886 79.1927C40.9979 79.7214 40.4155 79.9927 39.8885 79.8014Z" fill="#44C8F5"/>
<path fill-rule="evenodd" clip-rule="evenodd" d="M49.9506 80.4928C49.0422 80.8232 48.0403 80.3537 47.7109 79.4425C47.3816 78.5312 47.8496 77.526 48.7545 77.1956C49.6594 76.8652 50.6648 77.3348 50.9941 78.2425C51.3235 79.1503 50.8589 80.1624 49.9506 80.4928Z" fill="#1C75BC"/>
<path fill-rule="evenodd" clip-rule="evenodd" d="M61.2431 86.013C60.9692 86.1139 60.6641 85.9713 60.5636 85.6965C60.463 85.4218 60.6052 85.1157 60.879 85.0148C61.1529 84.914 61.458 85.0566 61.5586 85.3313C61.6626 85.6061 61.5204 85.9122 61.2431 86.013Z" fill="#EF4136"/>
<path fill-rule="evenodd" clip-rule="evenodd" d="M51.8627 87.9327C51.4259 87.9327 51.0723 87.5779 51.0723 87.1397C51.0723 86.7014 51.4259 86.3467 51.8627 86.3467C52.2996 86.3467 52.6532 86.7014 52.6532 87.1397C52.6532 87.5779 52.2996 87.9327 51.8627 87.9327Z" fill="#1E4397"/>
<path fill-rule="evenodd" clip-rule="evenodd" d="M75.8891 74.065C75.6568 74.4685 75.1437 74.6076 74.7415 74.3746C74.3393 74.1415 74.2007 73.6268 74.4329 73.2233C74.6652 72.8199 75.1783 72.6807 75.5805 72.9138C75.9827 73.1468 76.1214 73.665 75.8891 74.065Z" fill="#EF4136"/>
<path fill-rule="evenodd" clip-rule="evenodd" d="M64.6654 75.4571C64.2355 75.8188 63.5906 75.7632 63.2301 75.3319C62.8695 74.8971 62.925 74.2537 63.3549 73.892C63.7848 73.5302 64.4296 73.5859 64.7902 74.0172C65.1542 74.4484 65.0953 75.0954 64.6654 75.4571Z" fill="#EF4136"/>
<path fill-rule="evenodd" clip-rule="evenodd" d="M58.6737 78.9244C58.1467 79.1157 57.5643 78.8444 57.3736 78.3158C57.1829 77.7871 57.4533 77.2028 57.9803 77.0115C58.5073 76.8202 59.0897 77.0915 59.2804 77.6201C59.4711 78.1453 59.2007 78.7296 58.6737 78.9244Z" fill="#44C8F5"/>
<path fill-rule="evenodd" clip-rule="evenodd" d="M51.8627 81.0464C50.7949 81.0464 49.9316 80.1804 49.9316 79.1092C49.9316 78.0379 50.7949 77.1719 51.8627 77.1719C52.9306 77.1719 53.7938 78.0379 53.7938 79.1092C53.7938 80.1804 52.9306 81.0464 51.8627 81.0464Z" fill="#1E4397"/>
<path fill-rule="evenodd" clip-rule="evenodd" d="M62.1795 70.7682C61.6526 70.9595 61.0701 70.6882 60.8794 70.1595C60.6888 69.6308 60.9592 69.0465 61.4862 68.8552C62.0131 68.6639 62.5956 68.9352 62.7863 69.4639C62.9769 69.9891 62.7065 70.5769 62.1795 70.7682Z" fill="#1E4397"/>
<path fill-rule="evenodd" clip-rule="evenodd" d="M71.0547 76.7398C70.8294 76.9276 70.4965 76.8998 70.3093 76.6737C70.1221 76.4476 70.1498 76.1137 70.3752 75.9259C70.6005 75.7381 70.9334 75.7659 71.1206 75.992C71.3078 76.2146 71.2801 76.552 71.0547 76.7398Z" fill="#1C75BC"/>
<path fill-rule="evenodd" clip-rule="evenodd" d="M62.8316 81.3412C62.4225 81.4908 61.9683 81.2786 61.8193 80.8682C61.6702 80.4578 61.8817 80.0022 62.2908 79.8526C62.6999 79.7031 63.154 79.9152 63.3031 80.3256C63.4557 80.736 63.2442 81.1917 62.8316 81.3412Z" fill="#1C75BC"/>
<path fill-rule="evenodd" clip-rule="evenodd" d="M60.5471 75.2927C59.5452 75.6579 58.4357 75.1397 58.0717 74.1345C57.7077 73.1294 58.2242 72.0164 59.2262 71.6512C60.2281 71.286 61.3376 71.8042 61.7016 72.8094C62.0656 73.8145 61.5491 74.9275 60.5471 75.2927Z" fill="#EF4136"/>
<path fill-rule="evenodd" clip-rule="evenodd" d="M58.5226 69.7147C57.7044 70.0138 56.796 69.5894 56.4979 68.7686C56.1997 67.9443 56.6227 67.0365 57.4443 66.7374C58.2625 66.4383 59.1709 66.8626 59.469 67.6869C59.7637 68.5078 59.3408 69.4155 58.5226 69.7147Z" fill="#F69891"/>
<path fill-rule="evenodd" clip-rule="evenodd" d="M10.7902 71.9539C9.97198 72.253 9.06364 71.8287 8.76548 71.0079C8.46732 70.1836 8.89029 69.2758 9.70849 68.9767C10.5267 68.6776 11.435 69.1019 11.7332 69.9262C12.0348 70.747 11.6119 71.6548 10.7902 71.9539Z" fill="#EF4136"/>
<path fill-rule="evenodd" clip-rule="evenodd" d="M8.60946 72.6288C8.24196 72.3192 8.19342 71.7662 8.50198 71.3976C8.81054 71.0289 9.36178 70.9802 9.72928 71.2897C10.0968 71.5993 10.1453 72.1523 9.83676 72.521C9.5282 72.8896 8.97695 72.9383 8.60946 72.6288Z" fill="#1C75BC"/>
<path fill-rule="evenodd" clip-rule="evenodd" d="M17.0286 82.2249C16.5779 82.058 16.3421 81.5572 16.5085 81.105C16.6749 80.6494 17.1742 80.4163 17.6249 80.5833C18.079 80.7502 18.3113 81.2511 18.1449 81.7032C17.9785 82.1554 17.4793 82.3884 17.0286 82.2249Z" fill="#9AD9EA"/>
<path fill-rule="evenodd" clip-rule="evenodd" d="M8.58143 77.4946C8.15152 77.1329 8.09605 76.4895 8.45662 76.0582C8.81718 75.6269 9.45857 75.5712 9.88847 75.933C10.3184 76.2947 10.3738 76.9381 10.0133 77.3659C9.65272 77.8007 9.01133 77.8598 8.58143 77.4946Z" fill="#1E4397"/>
<path fill-rule="evenodd" clip-rule="evenodd" d="M19.7966 74.601C19.3875 74.4514 19.176 73.9958 19.3251 73.5854C19.4742 73.175 19.9284 72.9628 20.3375 73.1124C20.7466 73.2619 20.9581 73.7176 20.809 74.128C20.6564 74.5384 20.2057 74.7505 19.7966 74.601Z" fill="#44C8F5"/>
<path fill-rule="evenodd" clip-rule="evenodd" d="M28.214 88.3534C27.732 88.3534 27.3438 87.9639 27.3438 87.4804C27.3438 86.997 27.732 86.6074 28.214 86.6074C28.6959 86.6074 29.0842 86.997 29.0842 87.4804C29.0842 87.9604 28.6959 88.3534 28.214 88.3534Z" fill="#1E4397"/>
<path fill-rule="evenodd" clip-rule="evenodd" d="M18.6658 86.8053C18.1389 86.614 17.8685 86.0297 18.0591 85.501C18.2498 84.9723 18.8323 84.701 19.3592 84.8923C19.8862 85.0836 20.1601 85.6679 19.966 86.1966C19.7753 86.7253 19.1894 87 18.6658 86.8053Z" fill="#1E4397"/>
<path fill-rule="evenodd" clip-rule="evenodd" d="M4.18685 74.403C3.95457 73.9996 4.09324 73.4848 4.49541 73.2518C4.89758 73.0188 5.41069 73.1579 5.64297 73.5579C5.87526 73.9613 5.73658 74.4761 5.33441 74.7091C4.93225 74.9456 4.41914 74.8065 4.18685 74.403Z" fill="#44C8F5"/>
<path fill-rule="evenodd" clip-rule="evenodd" d="M24.3237 84.3848C23.8868 84.3848 23.5332 84.0301 23.5332 83.5918C23.5332 83.1536 23.8868 82.7988 24.3237 82.7988C24.7605 82.7988 25.1141 83.1536 25.1141 83.5918C25.1141 84.0301 24.7605 84.3848 24.3237 84.3848Z" fill="#F69891"/>
<path fill-rule="evenodd" clip-rule="evenodd" d="M15.321 75.9024C14.8287 75.4885 14.7663 74.7547 15.1788 74.2608C15.5914 73.7669 16.3229 73.7043 16.8152 74.1182C17.3075 74.5321 17.3699 75.2659 16.9574 75.7598C16.5448 76.2537 15.8098 76.3163 15.321 75.9024Z" fill="#F69891"/>
<path fill-rule="evenodd" clip-rule="evenodd" d="M26.8357 76.1669C25.8719 76.1669 25.0918 75.3843 25.0918 74.4174C25.0918 73.4505 25.8719 72.668 26.8357 72.668C27.7995 72.668 28.5796 73.4505 28.5796 74.4174C28.5796 75.3843 27.7995 76.1669 26.8357 76.1669Z" fill="#44C8F5"/>
<path fill-rule="evenodd" clip-rule="evenodd" d="M18.8281 70.1838C18.3462 69.3456 18.6305 68.2709 19.4695 67.7874C20.305 67.3005 21.3763 67.5892 21.8582 68.4309C22.3401 69.2691 22.0559 70.3438 21.2169 70.8273C20.3779 71.3107 19.31 71.0221 18.8281 70.1838Z" fill="#1E4397"/>
<path fill-rule="evenodd" clip-rule="evenodd" d="M4.29554 68.8653C4.24353 68.5766 4.43768 68.3018 4.72544 68.2497C5.0132 68.1975 5.28709 68.3923 5.33909 68.6809C5.3911 68.9696 5.19695 69.2444 4.90919 69.2966C4.62143 69.3487 4.34754 69.1574 4.29554 68.8653Z" fill="#1C75BC"/>
<path fill-rule="evenodd" clip-rule="evenodd" d="M40.8129 90.273C40.3622 90.4399 39.8595 90.2034 39.6966 89.7512C39.5336 89.2991 39.7659 88.7948 40.2166 88.6313C40.6708 88.4679 41.17 88.7009 41.333 89.153C41.4994 89.6052 41.2636 90.106 40.8129 90.273Z" fill="#1C75BC"/>
<path fill-rule="evenodd" clip-rule="evenodd" d="M31.3127 92.0987C30.751 92.0987 30.2969 91.6431 30.2969 91.0796C30.2969 90.5162 30.751 90.0605 31.3127 90.0605C31.8743 90.0605 32.3285 90.5162 32.3285 91.0796C32.3285 91.6396 31.8743 92.0987 31.3127 92.0987Z" fill="#EF4136"/>
<path fill-rule="evenodd" clip-rule="evenodd" d="M13.4795 85.4076C13.1258 85.1085 13.0773 84.5764 13.3754 84.2216C13.6736 83.8669 14.204 83.8182 14.5577 84.1173C14.9148 84.4164 14.9598 84.9485 14.6617 85.3033C14.3635 85.6615 13.8365 85.7068 13.4795 85.4076Z" fill="#F69891"/>
<path fill-rule="evenodd" clip-rule="evenodd" d="M14.0661 74.0799C13.7853 73.593 13.9517 72.9669 14.4405 72.6817C14.9259 72.4 15.5499 72.567 15.8342 73.0574C16.115 73.5478 15.9486 74.1704 15.4598 74.4556C14.971 74.7373 14.3469 74.5669 14.0661 74.0799Z" fill="#EF4136"/>
<path fill-rule="evenodd" clip-rule="evenodd" d="M38.0465 82.6498C37.6374 82.7994 37.1832 82.5872 37.0341 82.1768C36.885 81.7664 37.0965 81.3108 37.5056 81.1612C37.9147 81.0117 38.3689 81.2238 38.518 81.6342C38.667 82.0446 38.4556 82.5003 38.0465 82.6498Z" fill="#F69891"/>
<path fill-rule="evenodd" clip-rule="evenodd" d="M24.453 82.9973C23.8497 82.7782 23.5412 82.1104 23.7596 81.5052C23.978 80.9 24.6471 80.5905 25.2469 80.8096C25.8501 81.0287 26.1587 81.6965 25.9403 82.3017C25.7219 82.9069 25.0562 83.2199 24.453 82.9973Z" fill="#EF4136"/>
<path fill-rule="evenodd" clip-rule="evenodd" d="M21.6199 75.6798C20.8815 75.0572 20.7844 73.9512 21.405 73.2069C22.0255 72.466 23.128 72.3687 23.87 72.9912C24.6119 73.6138 24.7055 74.7198 24.0849 75.4607C23.4609 76.205 22.3584 76.3024 21.6199 75.6798Z" fill="#9AD9EA"/>
<path fill-rule="evenodd" clip-rule="evenodd" d="M34.9298 74.0552C34.3647 74.2604 33.7406 73.9682 33.5361 73.4013C33.3315 72.8344 33.6228 72.2083 34.1879 72.0031C34.753 71.7979 35.3771 72.0901 35.5816 72.657C35.7827 73.2204 35.4949 73.8465 34.9298 74.0552Z" fill="#1C75BC"/>
<path fill-rule="evenodd" clip-rule="evenodd" d="M28.2912 76.0518C27.7296 76.0518 27.2754 75.5962 27.2754 75.0327C27.2754 74.4693 27.7296 74.0137 28.2912 74.0137C28.8529 74.0137 29.307 74.4693 29.307 75.0327C29.307 75.5962 28.8529 76.0518 28.2912 76.0518Z" fill="#F69891"/>
<path fill-rule="evenodd" clip-rule="evenodd" d="M24.5003 72.2328C24.0288 71.8363 23.9664 71.1303 24.3616 70.6608C24.7568 70.1877 25.4606 70.1251 25.9287 70.5216C26.4002 70.9181 26.4626 71.6207 26.0674 72.0937C25.6756 72.5667 24.9718 72.6293 24.5003 72.2328Z" fill="#1E4397"/>
<path fill-rule="evenodd" clip-rule="evenodd" d="M11.6937 80.1698C11.5481 79.9159 11.6347 79.589 11.8878 79.4429C12.1409 79.2969 12.4668 79.3838 12.6124 79.6377C12.758 79.8916 12.6714 80.2185 12.4183 80.3646C12.1652 80.5107 11.8428 80.4237 11.6937 80.1698Z" fill="#44C8F5"/>
<path fill-rule="evenodd" clip-rule="evenodd" d="M11.0533 70.6053C10.977 70.174 11.2648 69.7636 11.6947 69.6871C12.1246 69.6106 12.5337 69.8993 12.6099 70.3305C12.6862 70.7618 12.3985 71.1722 11.9685 71.2488C11.5386 71.3218 11.1295 71.0331 11.0533 70.6053Z" fill="#44C8F5"/>
<path fill-rule="evenodd" clip-rule="evenodd" d="M53.3074 87.7519C52.9399 88.0614 52.3887 88.0127 52.0801 87.644C51.7715 87.2754 51.8201 86.7223 52.1876 86.4128C52.5551 86.1032 53.1063 86.1519 53.4149 86.5206C53.7234 86.8928 53.6749 87.4423 53.3074 87.7519Z" fill="#44C8F5"/>
<path fill-rule="evenodd" clip-rule="evenodd" d="M45.0018 92.7291C44.4748 92.9204 43.8924 92.6491 43.7017 92.1204C43.511 91.5918 43.7815 91.0075 44.3084 90.8162C44.8354 90.6249 45.4179 90.8962 45.612 91.4248C45.8062 91.9535 45.5288 92.5343 45.0018 92.7291Z" fill="#F69891"/>
<path fill-rule="evenodd" clip-rule="evenodd" d="M25.9627 92.5617C25.5259 92.4017 25.304 91.9182 25.46 91.4835C25.6195 91.0452 26.1014 90.8191 26.5348 90.9791C26.9716 91.1391 27.1935 91.6226 27.0375 92.0573C26.8815 92.4956 26.3995 92.7216 25.9627 92.5617Z" fill="#9AD9EA"/>
<path fill-rule="evenodd" clip-rule="evenodd" d="M22.6498 81.7134C22.2199 81.3517 22.1644 80.7048 22.525 80.2735C22.8855 79.8422 23.5304 79.7831 23.9603 80.1483C24.3902 80.51 24.4457 81.1569 24.0851 81.5882C23.7245 82.0195 23.0832 82.0786 22.6498 81.7134Z" fill="#1C75BC"/>
<path fill-rule="evenodd" clip-rule="evenodd" d="M18.2088 76.3963C17.928 75.9094 18.0944 75.2868 18.5797 75.0051C19.0651 74.7234 19.6857 74.8903 19.9665 75.3773C20.2473 75.8642 20.0809 76.4868 19.5956 76.7685C19.1102 77.0537 18.4896 76.8833 18.2088 76.3963Z" fill="#1E4397"/>
<path fill-rule="evenodd" clip-rule="evenodd" d="M48.1081 81.5397C47.7753 81.8215 47.276 81.7762 46.9952 81.4423C46.7144 81.1084 46.7595 80.6076 47.0923 80.3259C47.4251 80.0442 47.9244 80.0894 48.2052 80.4233C48.486 80.7572 48.4444 81.258 48.1081 81.5397Z" fill="#F69891"/>
<path fill-rule="evenodd" clip-rule="evenodd" d="M35.4524 86.5315C34.8111 86.5315 34.291 86.0098 34.291 85.3663C34.291 84.7229 34.8111 84.2012 35.4524 84.2012C36.0938 84.2012 36.6139 84.7229 36.6139 85.3663C36.6139 86.0098 36.0938 86.5315 35.4524 86.5315Z" fill="#1C75BC"/>
<path fill-rule="evenodd" clip-rule="evenodd" d="M46.3366 79.331C45.5982 79.9501 44.4992 79.8562 43.882 79.1154C43.2649 78.3745 43.3585 77.272 44.097 76.6529C44.8355 76.0338 45.9345 76.1277 46.5516 76.8685C47.1687 77.6059 47.0716 78.7084 46.3366 79.331Z" fill="#1E4397"/>
<path fill-rule="evenodd" clip-rule="evenodd" d="M38.3553 80.3297C37.8284 80.521 37.2459 80.2497 37.0552 79.721C36.8645 79.1924 37.135 78.608 37.6619 78.4168C38.1889 78.2255 38.7714 78.4967 38.9621 79.0254C39.1527 79.5506 38.8823 80.1349 38.3553 80.3297Z" fill="#1E4397"/>
<path fill-rule="evenodd" clip-rule="evenodd" d="M30.2953 80.6259C29.387 80.2955 28.9189 79.2869 29.2518 78.3791C29.5811 77.4678 30.5865 76.9983 31.4914 77.3322C32.3997 77.6626 32.8678 78.6712 32.535 79.579C32.2021 80.4868 31.2036 80.9563 30.2953 80.6259Z" fill="#1E4397"/>
<path fill-rule="evenodd" clip-rule="evenodd" d="M28.342 74.9107C27.6728 74.3472 27.5862 73.349 28.1478 72.6777C28.7094 72.0065 29.7045 71.9195 30.3736 72.483C31.0427 73.0464 31.1294 74.0446 30.5677 74.7159C30.0061 75.3872 29.0111 75.4741 28.342 74.9107Z" fill="#EF4136"/>
<path fill-rule="evenodd" clip-rule="evenodd" d="M27.0011 71.356C26.6613 70.7647 26.8624 70.0065 27.4518 69.6657C28.0412 69.3248 28.797 69.5266 29.1367 70.1178C29.4765 70.7091 29.2754 71.4673 28.686 71.8082C28.0966 72.149 27.3409 71.9473 27.0011 71.356Z" fill="#F69891"/>
<path fill-rule="evenodd" clip-rule="evenodd" d="M25.2732 68.2079C25.19 67.7418 25.502 67.3001 25.9631 67.2166C26.4277 67.1331 26.868 67.4462 26.9512 67.9087C27.0344 68.3748 26.7224 68.8165 26.2613 68.9C25.7967 68.9835 25.3564 68.6739 25.2732 68.2079Z" fill="#1C75BC"/>
<path fill-rule="evenodd" clip-rule="evenodd" d="M9.40992 76.038C9.32672 75.572 9.63874 75.1302 10.0998 75.0468C10.5644 74.9668 11.0047 75.2763 11.0879 75.7389C11.1711 76.205 10.8591 76.6467 10.398 76.7301C9.93343 76.8101 9.49313 76.5006 9.40992 76.038Z" fill="#9AD9EA"/>
<path fill-rule="evenodd" clip-rule="evenodd" d="M42.2491 74.5311C41.788 74.9171 41.105 74.858 40.7167 74.3954C40.3318 73.9328 40.3908 73.2477 40.8519 72.8581C41.313 72.4721 41.996 72.5312 42.3843 72.9938C42.7691 73.4563 42.7067 74.145 42.2491 74.5311Z" fill="#EF4136"/>
<path fill-rule="evenodd" clip-rule="evenodd" d="M39.0448 76.3053C38.5178 76.4966 37.9354 76.2253 37.7447 75.6966C37.554 75.1679 37.8244 74.5836 38.3514 74.3923C38.8784 74.201 39.4608 74.4723 39.6515 75.001C39.8422 75.5297 39.5718 76.114 39.0448 76.3053Z" fill="#EF4136"/>
<path fill-rule="evenodd" clip-rule="evenodd" d="M28.5877 77.259C28.2896 77.259 28.0469 77.0155 28.0469 76.7164C28.0469 76.4173 28.2896 76.1738 28.5877 76.1738C28.8859 76.1738 29.1286 76.4173 29.1286 76.7164C29.1286 77.0155 28.8859 77.259 28.5877 77.259Z" fill="#1C75BC"/>
<path fill-rule="evenodd" clip-rule="evenodd" d="M31.8313 76.3995C31.2524 76.1873 30.9542 75.5473 31.1657 74.9665C31.3772 74.3857 32.0151 74.0865 32.5941 74.2987C33.173 74.5109 33.4677 75.1508 33.2597 75.7317C33.0482 76.309 32.4068 76.6081 31.8313 76.3995Z" fill="#44C8F5"/>
<path fill-rule="evenodd" clip-rule="evenodd" d="M46.8826 75.2339C46.4527 75.5956 45.8113 75.5399 45.4508 75.1087C45.0902 74.6774 45.1457 74.0339 45.5756 73.6722C46.0055 73.3105 46.6469 73.3661 47.0074 73.7974C47.368 74.2322 47.3125 74.8756 46.8826 75.2339Z" fill="#EF4136"/>
<path fill-rule="evenodd" clip-rule="evenodd" d="M49.289 72.4698C48.9874 72.9915 48.3252 73.1688 47.8052 72.8697C47.2851 72.5706 47.1083 71.9028 47.4065 71.3811C47.7081 70.8594 48.3703 70.682 48.8903 70.9811C49.4104 71.2837 49.5906 71.948 49.289 72.4698Z" fill="#1C75BC"/>
<path fill-rule="evenodd" clip-rule="evenodd" d="M31.1851 72.3504C30.9494 71.94 31.088 71.4183 31.4971 71.1818C31.9062 70.9453 32.4263 71.0879 32.662 71.4948C32.8978 71.9052 32.7591 72.427 32.35 72.66C31.9409 72.9 31.4209 72.7608 31.1851 72.3504Z" fill="#1E4397"/>
<path fill-rule="evenodd" clip-rule="evenodd" d="M33.2457 75.4043C32.7222 74.966 32.6564 74.1835 33.0932 73.6583C33.5335 73.1331 34.3101 73.067 34.8336 73.5052C35.3571 73.947 35.423 74.7261 34.9862 75.2512C34.5493 75.7764 33.7693 75.8425 33.2457 75.4043Z" fill="#1E4397"/>
<path fill-rule="evenodd" clip-rule="evenodd" d="M36.3511 77.5956C37.1693 77.8947 38.0776 77.4704 38.3758 76.6495C38.6739 75.8252 38.251 74.9174 37.4328 74.6183C36.6146 74.3192 35.7062 74.7435 35.4081 75.5644C35.1099 76.3887 35.5329 77.2965 36.3511 77.5956Z" fill="#9AD9EA"/>
<path fill-rule="evenodd" clip-rule="evenodd" d="M40.5149 85.4248C39.5476 85.4248 38.7676 84.6388 38.7676 83.6719C38.7676 82.705 39.5511 81.9189 40.5149 81.9189C41.4787 81.9189 42.2623 82.705 42.2623 83.6719C42.2623 84.6388 41.4787 85.4248 40.5149 85.4248Z" fill="#9AD9EA"/>
<path fill-rule="evenodd" clip-rule="evenodd" d="M49.3596 78.1933C48.9297 78.555 48.2883 78.4994 47.9312 78.0681C47.5707 77.6368 47.6261 76.9934 48.056 76.6351C48.4859 76.2734 49.1273 76.329 49.4844 76.7603C49.845 77.1881 49.786 77.8316 49.3596 78.1933Z" fill="#44C8F5"/>
<path fill-rule="evenodd" clip-rule="evenodd" d="M53.8968 75.2938C53.4149 76.1286 52.3505 76.4173 51.515 75.9338C50.6795 75.4504 50.3952 74.3826 50.8771 73.5444C51.359 72.7096 52.4233 72.421 53.2589 72.9044C54.0944 73.3879 54.3787 74.4556 53.8968 75.2938Z" fill="#EF4136"/>
<path fill-rule="evenodd" clip-rule="evenodd" d="M22.5382 71.9435C22.1014 71.1852 22.3614 70.2183 23.1172 69.7801C23.873 69.3419 24.8403 69.6027 25.2771 70.3609C25.7139 71.1192 25.4539 72.0861 24.6981 72.5243C23.9423 72.9625 22.975 72.7017 22.5382 71.9435Z" fill="#EF4136"/>
<path fill-rule="evenodd" clip-rule="evenodd" d="M33.9232 81.7104C33.4933 81.3487 33.4378 80.7053 33.7984 80.274C34.159 79.8427 34.8004 79.7871 35.2303 80.1488C35.6602 80.5105 35.7156 81.154 35.3551 81.5852C34.9945 82.0165 34.3531 82.0722 33.9232 81.7104Z" fill="#1C75BC"/>
<path fill-rule="evenodd" clip-rule="evenodd" d="M46.9949 86.0754C46.3917 86.2946 45.726 85.985 45.5076 85.3798C45.2892 84.7746 45.5978 84.1068 46.201 83.8877C46.8043 83.6686 47.4699 83.9782 47.6883 84.5833C47.9102 85.1885 47.5982 85.8563 46.9949 86.0754Z" fill="#1E4397"/>
<path fill-rule="evenodd" clip-rule="evenodd" d="M57.1834 77.0431C56.965 77.4222 56.4831 77.5509 56.1052 77.3317C55.7273 77.1126 55.599 76.6292 55.8174 76.25C56.0358 75.8709 56.5177 75.7422 56.8956 75.9579C57.2735 76.1805 57.4018 76.6639 57.1834 77.0431Z" fill="#F69891"/>
<path fill-rule="evenodd" clip-rule="evenodd" d="M22.0949 77.6165C21.5609 76.6879 21.8799 75.5053 22.8021 74.9697C23.7278 74.4341 24.9065 74.7541 25.4405 75.6792C25.9744 76.6044 25.6554 77.7904 24.7332 78.326C23.811 78.8617 22.6288 78.5417 22.0949 77.6165Z" fill="#F69891"/>
<path fill-rule="evenodd" clip-rule="evenodd" d="M16.212 70.8966C15.6781 69.9679 15.9971 68.7854 16.9193 68.2498C17.845 67.7141 19.0237 68.0306 19.5576 68.9593C20.0916 69.8845 19.7761 71.0705 18.8504 71.6061C17.9282 72.1382 16.7459 71.8217 16.212 70.8966Z" fill="#9AD9EA"/>
<path fill-rule="evenodd" clip-rule="evenodd" d="M27.3373 82.4716C26.9074 82.1099 26.8519 81.4664 27.2125 81.0386C27.573 80.6074 28.2144 80.5517 28.6443 80.9134C29.0742 81.2752 29.1297 81.9186 28.7691 82.3499C28.4051 82.7777 27.7637 82.8333 27.3373 82.4716Z" fill="#1E4397"/>
<path fill-rule="evenodd" clip-rule="evenodd" d="M33.3212 85.9436C32.7943 85.7523 32.5204 85.1645 32.7111 84.6324C32.9017 84.1002 33.4877 83.8289 34.0181 84.0202C34.5485 84.2115 34.819 84.7993 34.6283 85.3315C34.4376 85.8636 33.8517 86.1384 33.3212 85.9436Z" fill="#F69891"/>
<path fill-rule="evenodd" clip-rule="evenodd" d="M40.1339 94.9998C39.6694 94.9998 39.2949 94.6242 39.2949 94.1581C39.2949 93.692 39.6694 93.3164 40.1339 93.3164C40.5985 93.3164 40.9729 93.692 40.9729 94.1581C40.9729 94.6242 40.5985 94.9998 40.1339 94.9998Z" fill="#1E4397"/>
<path fill-rule="evenodd" clip-rule="evenodd" d="M58.0818 88.6249C57.6519 88.9866 57.0105 88.931 56.65 88.4997C56.2894 88.0684 56.3449 87.425 56.7748 87.0668C57.2047 86.705 57.8461 86.7607 58.2066 87.192C58.5672 87.6198 58.5117 88.2632 58.0818 88.6249Z" fill="#9AD9EA"/>
<path fill-rule="evenodd" clip-rule="evenodd" d="M64.1906 81.1014C63.9514 81.5188 63.4175 81.6614 63.0015 81.4214C62.5854 81.178 62.4433 80.6458 62.6825 80.2284C62.9217 79.8111 63.4556 79.6685 63.8717 79.9085C64.2877 80.1484 64.4298 80.6806 64.1906 81.1014Z" fill="#44C8F5"/>
<path fill-rule="evenodd" clip-rule="evenodd" d="M16.1533 81.0598C15.9349 80.6807 16.0632 80.1972 16.4411 79.9781C16.819 79.759 17.3009 79.8912 17.5193 80.2668C17.7377 80.6459 17.6095 81.1294 17.2316 81.3485C16.8537 81.5676 16.3718 81.4389 16.1533 81.0598Z" fill="#44C8F5"/>
<path fill-rule="evenodd" clip-rule="evenodd" d="M22.5002 88.2486C22.2748 88.0608 22.2471 87.7234 22.4343 87.5008C22.6215 87.2747 22.9578 87.2469 23.1797 87.4347C23.4016 87.6225 23.4328 87.9599 23.2456 88.1825C23.0584 88.4086 22.7255 88.4399 22.5002 88.2486Z" fill="#44C8F5"/>
<path fill-rule="evenodd" clip-rule="evenodd" d="M35.4122 92.137C35.1384 92.0362 34.9962 91.7301 35.0968 91.4554C35.1973 91.1806 35.5024 91.038 35.7763 91.1389C36.0502 91.2397 36.1923 91.5458 36.0918 91.8205C35.9912 92.0953 35.6861 92.2379 35.4122 92.137Z" fill="#1C75BC"/>
<path fill-rule="evenodd" clip-rule="evenodd" d="M26.9946 87.5563C26.6618 87.2746 26.6167 86.7738 26.8976 86.4399C27.1784 86.106 27.6776 86.0608 28.0104 86.3425C28.3433 86.6242 28.3883 87.125 28.1075 87.4589C27.8267 87.7928 27.3275 87.838 26.9946 87.5563Z" fill="#44C8F5"/>
<path fill-rule="evenodd" clip-rule="evenodd" d="M72.1474 71.1124C72.0642 71.5889 71.6135 71.9054 71.1385 71.8219C70.6636 71.7384 70.3481 71.2863 70.4313 70.8098C70.5145 70.3333 70.9652 70.0168 71.4402 70.1003C71.9151 70.1837 72.2306 70.6394 72.1474 71.1124Z" fill="#F69891"/>
<path fill-rule="evenodd" clip-rule="evenodd" d="M68.9724 80.2811C68.6916 80.768 68.071 80.935 67.5856 80.6533C67.1002 80.3715 66.9338 79.749 67.2146 79.262C67.4955 78.7751 68.116 78.6082 68.6014 78.8899C69.0868 79.1681 69.2532 79.7942 68.9724 80.2811Z" fill="#1E4397"/>
<path fill-rule="evenodd" clip-rule="evenodd" d="M54.2822 92.4298C53.8454 92.5898 53.3635 92.3637 53.2075 91.9255C53.048 91.4873 53.2734 91.0038 53.7102 90.8473C54.147 90.6873 54.6289 90.9134 54.7849 91.3516C54.9444 91.7864 54.7191 92.2698 54.2822 92.4298Z" fill="#9AD9EA"/>
<path fill-rule="evenodd" clip-rule="evenodd" d="M44.7927 86.2561C44.2311 86.2561 43.7734 85.7969 43.7734 85.2335C43.7734 84.67 44.2311 84.2109 44.7927 84.2109C45.3544 84.2109 45.812 84.67 45.812 85.2335C45.812 85.7969 45.3544 86.2561 44.7927 86.2561Z" fill="#EF4136"/>
<path fill-rule="evenodd" clip-rule="evenodd" d="M37.9836 85.0494C37.4567 84.8581 37.1828 84.2738 37.3769 83.7451C37.5676 83.2165 38.1501 82.9452 38.677 83.1365C39.204 83.3278 39.4744 83.9121 39.2838 84.4408C39.0931 84.9694 38.5106 85.2407 37.9836 85.0494Z" fill="#EF4136"/>
<path fill-rule="evenodd" clip-rule="evenodd" d="M31.4042 82.2837C30.586 81.5951 30.4785 80.3743 31.165 79.5534C31.8515 78.7326 33.0684 78.6283 33.8866 79.3135C34.7048 80.0021 34.8088 81.2229 34.1258 82.0437C33.4393 82.8646 32.2224 82.9689 31.4042 82.2837Z" fill="#F69891"/>
<path fill-rule="evenodd" clip-rule="evenodd" d="M57.6871 81.6894C57.1948 82.1033 56.4633 82.0372 56.0507 81.5468C55.6382 81.0564 55.704 80.319 56.1929 79.9051C56.6852 79.4912 57.4167 79.5573 57.8293 80.0477C58.2419 80.5381 58.1794 81.2755 57.6871 81.6894Z" fill="#F69891"/>
<path fill-rule="evenodd" clip-rule="evenodd" d="M43.9895 81.1959C43.4625 81.0046 43.1886 80.4203 43.3828 79.8916C43.5735 79.363 44.1559 79.0917 44.6829 79.283C45.2099 79.4743 45.4803 80.0586 45.2896 80.5872C45.0989 81.1159 44.5165 81.3872 43.9895 81.1959Z" fill="#1C75BC"/>
<path fill-rule="evenodd" clip-rule="evenodd" d="M35.8752 79.0396C35.206 78.4761 35.1194 77.4779 35.681 76.8067C36.2427 76.1354 37.2377 76.0484 37.9068 76.6119C38.5759 77.1753 38.6626 78.1735 38.1009 78.8448C37.5393 79.5161 36.5443 79.603 35.8752 79.0396Z" fill="#EF4136"/>
<path fill-rule="evenodd" clip-rule="evenodd" d="M57.2185 73.4706C56.9376 73.9575 56.3171 74.1244 55.8317 73.8427C55.3463 73.561 55.1799 72.9384 55.4607 72.4515C55.7416 71.9646 56.3621 71.7976 56.8475 72.0793C57.3329 72.3611 57.4993 72.9836 57.2185 73.4706Z" fill="#1E4397"/>
<path fill-rule="evenodd" clip-rule="evenodd" d="M41.1293 76.3781C40.4879 76.145 40.1585 75.4355 40.3908 74.7921C40.6231 74.1486 41.3304 73.8182 41.9718 74.0512C42.6131 74.2843 42.9425 74.9938 42.7102 75.6372C42.4779 76.2807 41.7707 76.6111 41.1293 76.3781Z" fill="#F69891"/>
<path fill-rule="evenodd" clip-rule="evenodd" d="M38.1506 74.2183C37.79 73.9157 37.7415 73.3766 38.0466 73.0149C38.3482 72.6531 38.8856 72.6044 39.2462 72.9105C39.6067 73.2166 39.6553 73.7522 39.3502 74.1139C39.0485 74.4722 38.5112 74.5209 38.1506 74.2183Z" fill="#F69891"/>
<path fill-rule="evenodd" clip-rule="evenodd" d="M55.2047 68.1181C55.1007 68.7129 54.5355 69.1059 53.9462 69.0015C53.3533 68.8972 52.9615 68.3303 53.0656 67.739C53.1696 67.1443 53.7347 66.7478 54.3241 66.8556C54.9134 66.9564 55.3087 67.5234 55.2047 68.1181Z" fill="#EF4136"/>
<path fill-rule="evenodd" clip-rule="evenodd" d="M53.8865 71.5409C53.6056 72.0278 52.985 72.1948 52.4997 71.913C52.0143 71.6313 51.8479 71.0087 52.1287 70.5218C52.4095 70.0349 53.0301 69.8679 53.5155 70.1496C53.9974 70.4314 54.1673 71.0539 53.8865 71.5409Z" fill="#9AD9EA"/>
<path fill-rule="evenodd" clip-rule="evenodd" d="M67.3461 77.0703C67.1173 77.2616 66.7775 77.2338 66.5834 77.0042C66.3927 76.7747 66.4204 76.4338 66.6492 76.239C66.8781 76.0477 67.2178 76.0756 67.4085 76.3051C67.6061 76.5382 67.5749 76.879 67.3461 77.0703Z" fill="#9AD9EA"/>
<path fill-rule="evenodd" clip-rule="evenodd" d="M48.4163 76.2633C47.8373 76.472 47.1994 76.1764 46.9879 75.5955C46.7765 75.0147 47.0746 74.3747 47.6536 74.1626C48.2326 73.9539 48.8705 74.2495 49.082 74.8303C49.2935 75.4112 48.9953 76.0546 48.4163 76.2633Z" fill="#F69891"/>
<path fill-rule="evenodd" clip-rule="evenodd" d="M48.8664 91.3582C48.5752 91.3582 48.3359 91.1217 48.3359 90.8261C48.3359 90.5339 48.5717 90.2939 48.8664 90.2939C49.1611 90.2939 49.3968 90.5339 49.3968 90.8261C49.3968 91.1217 49.1576 91.3582 48.8664 91.3582Z" fill="#EF4136"/>
<path fill-rule="evenodd" clip-rule="evenodd" d="M39.0232 89.6059C38.6141 89.4563 38.4026 89.0007 38.5517 88.5903C38.7008 88.1799 39.1549 87.9677 39.564 88.1173C39.9731 88.2668 40.1846 88.7224 40.0355 89.1329C39.8865 89.5433 39.4358 89.7554 39.0232 89.6059Z" fill="#44C8F5"/>
<path fill-rule="evenodd" clip-rule="evenodd" d="M76.3631 68.7024C76.266 69.2554 75.739 69.6275 75.1843 69.5301C74.6331 69.4328 74.2621 68.9041 74.3592 68.3511C74.4563 67.7981 74.9832 67.4259 75.5345 67.5233C76.0892 67.6207 76.4602 68.1493 76.3631 68.7024Z" fill="#1E4397"/>
<path fill-rule="evenodd" clip-rule="evenodd" d="M66.7014 85.1568C66.3478 85.4559 65.8173 85.4107 65.5192 85.0525C65.221 84.6977 65.2661 84.1656 65.6232 83.8665C65.9768 83.5674 66.5072 83.6126 66.8054 83.9708C67.1001 84.329 67.055 84.8577 66.7014 85.1568Z" fill="#F69891"/>
<path fill-rule="evenodd" clip-rule="evenodd" d="M55.6786 82.6139C55.1517 82.8087 54.5657 82.534 54.3716 82.0018C54.1809 81.4731 54.4513 80.8853 54.9818 80.6906C55.5122 80.4958 56.0947 80.7706 56.2888 81.3027C56.4795 81.8349 56.2056 82.4192 55.6786 82.6139Z" fill="#1E4397"/>
<path fill-rule="evenodd" clip-rule="evenodd" d="M48.8674 83.8145C48.3057 83.8145 47.8516 83.3589 47.8516 82.7954C47.8516 82.232 48.3057 81.7764 48.8674 81.7764C49.429 81.7764 49.8832 82.232 49.8832 82.7954C49.8832 83.3589 49.429 83.8145 48.8674 83.8145Z" fill="#1C75BC"/>
<path fill-rule="evenodd" clip-rule="evenodd" d="M41.7418 83.4734C40.7399 83.1082 40.2233 81.9952 40.5873 80.99C40.9514 79.9849 42.0608 79.4666 43.0627 79.8318C44.0647 80.197 44.5813 81.31 44.2172 82.3152C43.8532 83.3203 42.7438 83.8386 41.7418 83.4734Z" fill="#9AD9EA"/>
<path fill-rule="evenodd" clip-rule="evenodd" d="M66.2396 73.8988C65.9171 74.4553 65.2099 74.6466 64.6552 74.3266C64.1005 74.0066 63.9098 73.2936 64.2287 72.7371C64.5512 72.1806 65.2584 71.9893 65.8131 72.3093C66.3678 72.6293 66.5585 73.3423 66.2396 73.8988Z" fill="#F69891"/>
<path fill-rule="evenodd" clip-rule="evenodd" d="M67.3978 69.7181C67.0753 70.2746 66.3681 70.4659 65.8134 70.1459C65.2587 69.8259 65.068 69.1129 65.3869 68.5564C65.7094 67.9999 66.4166 67.8087 66.9713 68.1286C67.5295 68.4486 67.7202 69.1616 67.3978 69.7181Z" fill="#44C8F5"/>
<path fill-rule="evenodd" clip-rule="evenodd" d="M43.7671 77.8952C42.9489 77.5961 42.5259 76.6848 42.8241 75.864C43.1222 75.0397 44.0271 74.6154 44.8488 74.918C45.667 75.2171 46.09 76.1283 45.7918 76.9492C45.4936 77.77 44.5853 78.1943 43.7671 77.8952Z" fill="#EF4136"/>
<path fill-rule="evenodd" clip-rule="evenodd" d="M58.5599 75.4292C57.8214 76.0518 56.7154 75.9544 56.0983 75.2136C55.4777 74.4728 55.5748 73.3633 56.3133 72.7442C57.0517 72.1216 58.1542 72.219 58.7783 72.9598C59.3954 73.6972 59.2983 74.8067 58.5599 75.4292Z" fill="#1C75BC"/>
<path fill-rule="evenodd" clip-rule="evenodd" d="M60.425 77.1854C59.6067 77.4845 58.6984 77.0602 58.4002 76.2394C58.1021 75.4151 58.5251 74.5073 59.3433 74.2082C60.1615 73.9091 61.0698 74.3334 61.368 75.1542C61.6661 75.9785 61.2432 76.8863 60.425 77.1854Z" fill="#9AD9EA"/>
<path fill-rule="evenodd" clip-rule="evenodd" d="M48.867 74.5906C48.1841 74.5906 47.6328 74.0376 47.6328 73.3524C47.6328 72.6673 48.1841 72.1143 48.867 72.1143C49.55 72.1143 50.1013 72.6673 50.1013 73.3524C50.1013 74.0376 49.55 74.5906 48.867 74.5906Z" fill="#1E4397"/>
<path fill-rule="evenodd" clip-rule="evenodd" d="M45.3303 73.5816C44.8866 73.4216 44.6612 72.9312 44.8207 72.486C44.9802 72.0443 45.469 71.8148 45.9128 71.9748C46.3565 72.1348 46.5819 72.6286 46.4224 73.0704C46.2629 73.5121 45.7741 73.7416 45.3303 73.5816Z" fill="#44C8F5"/>
<path fill-rule="evenodd" clip-rule="evenodd" d="M57.5472 69.9889C57.3981 70.2497 57.0688 70.3367 56.8087 70.1871C56.5522 70.0376 56.462 69.7072 56.6111 69.4463C56.7602 69.1889 57.0896 69.0985 57.3496 69.2481C57.6061 69.4011 57.6963 69.7315 57.5472 69.9889Z" fill="#EF4136"/>
<path fill-rule="evenodd" clip-rule="evenodd" d="M55.6787 71.9819C55.2072 72.3784 54.5068 72.3158 54.1116 71.8427C53.7164 71.3697 53.7788 70.6672 54.2503 70.2707C54.7218 69.8741 55.4221 69.9368 55.8174 70.4098C56.2091 70.8793 56.1467 71.5854 55.6787 71.9819Z" fill="#44C8F5"/>
<path fill-rule="evenodd" clip-rule="evenodd" d="M19.7381 64.9499C19.3013 64.7899 19.0794 64.3065 19.2354 63.8717C19.3949 63.4335 19.8768 63.2109 20.3101 63.3674C20.747 63.5274 20.9689 64.0108 20.8129 64.4456C20.6534 64.8838 20.1749 65.1099 19.7381 64.9499Z" fill="#9AD9EA"/>
<path fill-rule="evenodd" clip-rule="evenodd" d="M6.58313 67.7874C6.04922 66.8588 6.36818 65.6762 7.29039 65.1406C8.21607 64.605 9.39483 64.925 9.92874 65.8501C10.4627 66.7753 10.1472 67.9613 9.22148 68.4969C8.29581 69.0326 7.11704 68.7161 6.58313 67.7874Z" fill="#F69891"/>
<path fill-rule="evenodd" clip-rule="evenodd" d="M6.8683 66.0769C6.40373 66.0769 6.0293 65.7013 6.0293 65.2352C6.0293 64.7692 6.40373 64.3936 6.8683 64.3936C7.33287 64.3936 7.7073 64.7727 7.7073 65.2352C7.7073 65.7013 7.32941 66.0769 6.8683 66.0769Z" fill="#1E4397"/>
<path fill-rule="evenodd" clip-rule="evenodd" d="M13.8221 66.6922C13.1391 66.6922 12.5879 66.1392 12.5879 65.454C12.5879 64.7688 13.1391 64.2158 13.8221 64.2158C14.5051 64.2158 15.0564 64.7688 15.0564 65.454C15.0564 66.1392 14.5051 66.6922 13.8221 66.6922Z" fill="#1E4397"/>
</svg>
