<svg width="60" height="22" viewBox="0 0 60 22" fill="none" xmlns="http://www.w3.org/2000/svg">
<path d="M8.02279 18.0956C7.34802 18.823 6.24478 19.1861 4.71309 19.1861C2.04267 19.1861 0.615944 17.9421 0.432909 15.4549C0.404818 15.0347 0.390625 11.7236 0.390625 5.51723C0.390625 5.34963 0.468097 5.26583 0.622745 5.26583H2.81532C2.94188 5.26583 3.01196 5.34286 3.02615 5.49605C3.06814 6.34874 3.08943 8.15909 3.08943 10.9265C3.08943 13.693 3.10333 15.2311 3.13142 15.5384C3.1876 16.1397 3.41262 16.5975 3.80619 16.9121C4.19976 17.2261 4.70569 17.3837 5.32429 17.3837C5.97097 17.3837 6.48016 17.1988 6.85273 16.8283C7.22501 16.4578 7.43968 15.93 7.49587 15.2449C7.55205 14.2249 7.56595 11.9677 7.53815 8.47341C7.51006 4.97944 7.47487 2.92475 7.43288 2.31023C7.41869 2.17057 7.47517 2.10059 7.60143 2.10059H8.84542C8.94359 2.10059 8.99297 2.15616 8.99297 2.26818C9.06334 9.17203 9.09114 13.3305 9.07724 14.7419C9.04915 16.2514 8.69727 17.369 8.02279 18.0956Z" fill="#4A4A4B"/>
<path d="M19.9549 3.90349C19.59 3.93172 18.8626 3.94554 17.7729 3.94554C16.6836 3.94554 16.0547 3.95936 15.8858 3.98758C15.8016 3.98758 15.7596 4.04375 15.7596 4.15518L15.8225 18.1181C15.8225 18.2992 15.7309 18.3904 15.5487 18.3904C15.4642 18.4042 15.1901 18.4086 14.7261 18.4013C14.2628 18.3942 13.9532 18.3904 13.7988 18.3904C13.5596 18.3904 13.4398 18.2863 13.4398 18.0767C13.5102 16.3301 13.496 12.0387 13.3979 5.20458H10.278C10.0388 5.20458 9.91989 5.10637 9.91989 4.91114V2.85586C9.91989 2.74383 9.94769 2.65651 10.0039 2.59388C10.0601 2.53066 10.1372 2.50655 10.2357 2.52037C10.9386 2.56242 12.4428 2.57594 14.7477 2.56242C17.0529 2.5486 18.7887 2.5486 19.9549 2.56242C20.0959 2.56242 20.1657 2.63945 20.1657 2.79323V3.65239C20.1657 3.80587 20.0959 3.88967 19.9549 3.90349Z" fill="#4A4A4B"/>
<path d="M25.3743 19.3549C24.7137 20.5572 23.5259 21.1579 21.8111 21.1579C20.5181 21.1579 19.5343 20.9444 18.8595 20.5184C18.1847 20.092 17.7036 19.3549 17.4153 18.3067C17.1273 17.259 16.983 15.7212 16.983 13.6942C16.983 10.7451 17.3172 8.66274 17.9848 7.44692C18.6522 6.2311 19.7522 5.62305 21.2842 5.62305C22.3664 5.62305 23.2308 5.72802 23.8774 5.93707C24.5241 6.14672 25.0372 6.53837 25.4165 7.11143C25.7959 7.6845 26.0493 8.39723 26.1753 9.24933C26.3024 10.102 26.3654 11.2549 26.3654 12.7086C26.3651 15.9377 26.0348 18.1529 25.3743 19.3549ZM24.2565 8.778C23.8633 8.0441 23.1045 7.67715 21.9797 7.67715C21.0944 7.67715 20.4654 8.14907 20.0926 9.09261C19.7203 10.0356 19.534 11.6469 19.534 13.925C19.534 16.1608 19.7306 17.6704 20.1242 18.4528C20.5178 19.2349 21.2064 19.6266 22.1905 19.6266C22.8369 19.6266 23.3461 19.4451 23.719 19.0814C24.0912 18.7183 24.3724 18.0606 24.5626 17.1105C24.7521 16.1611 24.8473 14.8394 24.8473 13.1482C24.8473 10.9685 24.6504 9.5119 24.2565 8.778Z" fill="#4A4A4B"/>
<path d="M34.7018 3.77819C33.9927 3.00989 32.7736 2.625 31.0449 2.625C30.0745 2.625 28.9153 2.77202 27.5658 3.06546C27.397 3.1075 27.3127 3.22629 27.3127 3.42153L27.3763 18.286C27.3763 18.4533 27.4605 18.5371 27.6288 18.5371C28.4585 18.5371 29.0206 18.5306 29.3157 18.5162C29.4985 18.5162 29.5895 18.425 29.5895 18.2436V12.4789C29.5895 12.3254 29.6599 12.248 29.8007 12.248C31.8522 12.248 33.3596 11.8252 34.323 10.9802C35.2858 10.1345 35.7675 8.87904 35.7675 7.21659C35.7675 5.69351 35.4123 4.54708 34.7018 3.77819ZM31.0538 10.8643C30.5189 10.8643 30.0762 10.8438 29.7253 10.8017C29.641 10.7735 29.5987 10.7108 29.5987 10.6126V4.40771C30.2312 4.24011 30.843 4.15631 31.4329 4.15631C33.134 4.15631 33.9841 5.20424 33.9841 7.30038C33.9841 9.64852 33.0069 10.8367 31.0538 10.8643Z" fill="#4A4A4B"/>
<path d="M37.3903 3.42296C37.2776 3.47824 37.1866 3.47177 37.1165 3.40179L36.7158 2.89871C36.6177 2.77286 36.6245 2.67524 36.7365 2.60526C36.8906 2.52146 37.2534 2.31476 37.8226 1.98662C38.3918 1.65819 38.9575 1.33299 39.5196 1.01162L40.3635 0.529699C40.4895 0.45972 40.595 0.487653 40.6793 0.613498C40.7074 0.641137 40.7636 0.742577 40.8479 0.916644C40.9315 1.09189 40.9806 1.19333 40.9957 1.22097C41.0513 1.31917 41.0235 1.40297 40.9108 1.47236C39.3091 2.42326 38.1355 3.07336 37.3903 3.42296ZM38.7816 19.9005L37.306 19.9213C37.1236 19.9213 37.0041 19.8928 36.9477 19.8375C36.8912 19.7823 36.8634 19.6702 36.8634 19.5018C36.8634 18.0757 36.8737 16.1374 36.8947 13.6841C36.916 11.231 36.9299 9.50852 36.937 8.51617C36.9441 7.52381 36.9267 6.34298 36.8844 4.9728C36.8705 4.69376 36.9967 4.5541 37.2638 4.5541C37.8965 4.5541 38.4649 4.56792 38.9708 4.59615C39.1118 4.60997 39.2059 4.64084 39.2556 4.68965C39.3046 4.73905 39.3295 4.84078 39.3295 4.99397C39.3295 5.32946 39.3114 6.65377 39.2762 8.96692C39.2417 11.2804 39.2091 13.5167 39.1816 15.6752C39.1532 17.8352 39.1532 19.1104 39.1816 19.5018C39.1964 19.7678 39.0628 19.9005 38.7816 19.9005Z" fill="#4A4A4B"/>
<path d="M51.2416 18.9783C50.8761 17.0627 50.1661 14.17 49.1123 10.2985C48.0584 6.42668 47.4463 4.06473 47.2781 3.21233C47.2497 3.04474 47.1164 2.96094 46.8777 2.96094L44.7484 2.98152C44.5805 2.98152 44.474 3.07914 44.4326 3.27496C44.4042 3.38699 44.2011 4.04385 43.8217 5.24585C43.4424 6.44726 43.1224 7.47872 42.8622 8.33788C42.6026 9.19763 42.2862 10.26 41.9136 11.5249C41.541 12.7898 41.2072 13.9742 40.9121 15.078C40.617 16.1826 40.371 17.1544 40.174 17.9924C40.1323 18.202 40.2092 18.3282 40.4062 18.3696L41.2915 18.5369C41.4594 18.5508 41.5579 18.4946 41.5866 18.3696L42.5777 14.7219C42.62 14.596 42.6972 14.5325 42.8093 14.5325L47.4691 14.449L48.6918 19.5228C48.7338 19.6901 48.8539 19.7604 49.0502 19.7325C49.95 19.6057 50.5893 19.4878 50.9687 19.3758C51.0671 19.3473 51.1269 19.327 51.1481 19.3132C51.1683 19.2985 51.2008 19.2638 51.2422 19.2082C51.2839 19.1515 51.2839 19.0759 51.2416 18.9783ZM43.0881 13.1915C43.1165 13.0938 43.2989 12.489 43.6363 11.3779C43.9743 10.267 44.3043 9.18734 44.6281 8.13853C44.9516 7.0906 45.1763 6.4058 45.3023 6.08443C46.4271 9.87184 47.0587 12.2408 47.2 13.1915H43.0881Z" fill="#4A4A4B"/>
<path d="M59.5068 9.54346C59.4646 9.71106 59.3451 9.79486 59.1488 9.79486H57.0824C56.9 9.79486 56.8151 9.71106 56.8296 9.54346C56.9 8.88718 56.9349 8.34146 56.9349 7.90835C56.9349 5.85367 56.2953 4.82691 55.0161 4.82691C54.4398 4.82691 53.9901 5.04273 53.6672 5.47642C53.3434 5.91012 53.1816 6.48319 53.1816 7.19592C53.1816 8.41174 53.7299 9.36204 54.8263 10.0471C55.5005 10.452 56.3163 10.983 57.272 11.6405C58.9305 12.7581 59.76 14.0851 59.76 15.6237C59.76 16.839 59.4158 17.8001 58.7268 18.5061C58.0384 19.2118 56.9769 19.5652 55.5431 19.5652C54.1234 19.5652 53.0373 19.0689 52.2854 18.0768C51.5334 17.0848 51.1709 15.819 51.1996 14.2821C51.1996 14.1148 51.2632 14.0236 51.3897 14.0098C51.4882 13.9954 51.6848 13.9813 51.9799 13.9675C52.275 13.953 52.4436 13.9466 52.4859 13.9466C52.6399 13.9466 52.718 14.0163 52.718 14.1562C52.718 15.442 52.9847 16.4167 53.519 17.0807C54.053 17.7449 54.7911 18.0768 55.732 18.0768C56.4068 18.0768 56.913 17.8948 57.2504 17.5317C57.5881 17.1689 57.7566 16.6796 57.7566 16.0639C57.7566 15.6446 57.6026 15.2118 57.293 14.7643C56.9837 14.3171 56.6253 13.9395 56.2178 13.6323C55.8798 13.3809 55.3568 13.0448 54.6471 12.6255C53.9377 12.2062 53.4345 11.8916 53.1391 11.6819C51.6074 10.6061 50.8412 9.17328 50.8412 7.38439C50.8412 4.28148 52.3948 2.73047 55.5008 2.73047C56.9908 2.73047 58.073 3.16416 58.7475 4.03009C59.422 4.8966 59.7526 6.04302 59.7387 7.46819C59.739 8.20885 59.6618 8.90012 59.5068 9.54346Z" fill="#4A4A4B"/>
</svg>
