<svg width="360" height="272" viewBox="0 0 360 272" fill="none" xmlns="http://www.w3.org/2000/svg">
<path d="M212.243 268.225C228.867 267.208 343.358 265.344 357.852 258.608C372.346 251.872 287.203 242.213 276.274 241.789C265.346 241.366 257.034 235.096 269.707 230.478C282.38 225.86 220.888 220.819 186.846 220.819C152.804 220.819 185.051 231.707 164.99 232.935C144.903 234.206 75.0485 234.63 91.5436 242.594C108.039 250.559 67.1472 251.448 76.562 256.913C85.9512 262.378 182.511 270.089 212.243 268.225Z" fill="#F7F7F7"/>
<path d="M263.13 236H127.87C114.687 236 104 225.07 104 211.586V24.4138C104 10.9303 114.687 0 127.87 0H239.261L287 48.8276V211.586C287 225.07 276.313 236 263.13 236Z" fill="#E7F8F5"/>
<path d="M286.999 48.8276H263.129C249.946 48.8276 239.26 37.8973 239.26 24.4138V0L286.999 48.8276Z" fill="#BFF2E9"/>
<path d="M139.805 69.1719H251.196V134.275H139.805V69.1719Z" fill="#00AF91"/>
<path d="M139.805 118H251.196V183.103H139.805V118Z" fill="#00AF91"/>
<path d="M175.607 89.5166H251.194V134.275H175.607V89.5166Z" fill="#4ED6BE"/>
<path d="M175.607 138.346H251.194V183.104H175.607V138.346Z" fill="#4ED6BE"/>
<path d="M139.805 85.4482H251.196V93.5862H139.805V85.4482Z" fill="#E7F8F5"/>
<path d="M139.805 109.861H251.196V117.999H139.805V109.861Z" fill="#E7F8F5"/>
<path d="M171.631 69.1719H179.587V134.275H171.631V69.1719Z" fill="#E7F8F5"/>
<path d="M211.412 69.1719H219.369V134.275H211.412V69.1719Z" fill="#E7F8F5"/>
<path d="M139.805 134.276H251.196V142.414H139.805V134.276Z" fill="#E7F8F5"/>
<path d="M139.805 158.689H251.196V166.827H139.805V158.689Z" fill="#E7F8F5"/>
<path d="M171.631 118H179.587V183.103H171.631V118Z" fill="#E7F8F5"/>
<path d="M211.412 118H219.369V183.103H211.412V118Z" fill="#E7F8F5"/>
<path d="M273.902 107.554L302.124 104.247L322.524 107.831L341.514 88.4756L344.395 91.4814L326.636 115.905L305.218 116.044L310.199 152.981L281.071 160.024L275.99 126.847L274.355 118.408L259.062 118.056L249.114 139.751L245.001 140.354L253.993 110.045L273.902 107.554Z" fill="#FFC0B6"/>
<path d="M296.816 89.5438L302.525 73.2319L298.048 75.0178L300.287 68L290.817 74.1751L292.363 70.3015L273.725 79.734L277.485 91.4806L296.816 89.5438Z" fill="#6D4332"/>
<path d="M286.73 203.979L313.656 187.478L298.992 169.758L303.079 255.92H297.03L281.07 160.023L310.198 152.98L330.748 191.893L286.73 210.028V203.979Z" fill="#BFF2E9"/>
<path d="M297.03 255.921V261.14H299.847V259.857L301.608 261.14H314.311L303.08 255.921H297.03Z" fill="black"/>
<path d="M286.73 203.979H281.511V206.809H282.794L281.511 208.57V221.26L286.73 210.029V203.979Z" fill="black"/>
<path d="M341.514 88.4756C340.118 82.7155 343.728 86.2244 343.728 86.2244C343.728 86.2244 349.198 82.7658 350.255 83.8851C351.714 85.432 344.394 91.4688 344.394 91.4688L341.514 88.4756Z" fill="#FFC0B6"/>
<path d="M249.112 139.75C254.621 141.951 249.666 142.856 249.666 142.856C249.666 142.856 249.314 149.321 247.792 149.535C245.692 149.824 245 140.354 245 140.354L249.112 139.75Z" fill="#FFC0B6"/>
<path d="M295.545 105.102L284.855 106.309C284.855 106.309 286.062 113.616 291.017 113.063C296.966 112.396 295.545 105.102 295.545 105.102Z" fill="#FFC0B6"/>
<path d="M283.045 103.894L295.207 102.498L295.811 83.0801L277.486 85.1804L283.045 103.894Z" fill="#FFC0B6"/>
<path d="M295.672 87.7084C295.672 87.7084 297.886 86.501 298.112 88.4001C298.389 90.8022 295.509 92.8019 295.509 92.8019L295.672 87.7084Z" fill="#FFC0B6"/>
<path d="M278.818 89.6707C278.818 89.6707 276.215 88.9664 276.441 90.8655C276.718 93.2676 280.277 94.5253 280.277 94.5253L278.818 89.6707Z" fill="#FFC0B6"/>
<path d="M286.354 95.4181C286.605 93.1668 286.995 91.2678 287.347 90.5635C287.536 91.3181 287.511 93.2549 287.259 95.5187C287.196 96.0469 287.096 96.9021 287.096 96.7135C287.108 96.726 287.083 96.726 287.171 96.7386C287.347 96.7512 287.523 96.7638 287.687 96.7638C288.014 96.7889 288.328 96.8141 288.605 96.8518C289.158 96.9147 289.598 97.0027 289.875 97.0908C289.598 97.1914 289.171 97.2794 288.617 97.3675C288.341 97.4052 288.026 97.4429 287.699 97.4681C287.536 97.4807 287.36 97.4932 287.184 97.5058C286.857 97.5184 286.504 97.531 286.165 97.5435C286.215 96.9021 286.278 96.1727 286.354 95.4181Z" fill="#F9ADA7"/>
<path d="M291.597 100.07L292.662 109.379L286.715 110.06L285.649 100.751L291.597 100.07Z" fill="#FFC0B6"/>
<path d="M292.227 105.617L286.039 104.208L285.963 103.554L291.912 102.875L292.227 105.617Z" fill="#F9ADA7"/>
<path d="M281.072 160.023L310.199 152.98L305.219 116.042L314.035 115.992L313.381 106.22L302.125 104.245L269.74 108.106L270.784 118.318L274.356 118.406L281.072 160.023Z" fill="#00AF91"/>
<path d="M45.0625 259.305L43.1629 255.833L16.104 261.711L16.8955 265.426L45.0625 259.305Z" fill="#666666"/>
<path d="M16.895 265.426L-0.000938416 243.886L4.1571 243L18.6152 261.183L16.895 265.426Z" fill="#666666"/>
<path d="M199.044 204.722C199.044 204.722 202.404 198.552 204.317 196.332C206.229 194.112 212.579 192.446 211.717 189.611C210.852 186.776 202.343 188.009 200.002 190.784C197.66 193.558 190.506 194.545 190.26 195.717C190.013 196.89 192.742 203.3 194.277 204.351C195.805 205.398 199.044 204.722 199.044 204.722Z" fill="#00AF91"/>
<path d="M213.332 209.948C213.332 209.948 218.807 205.607 221.44 204.329C224.077 203.051 230.567 204.044 230.9 201.1C231.234 198.152 222.936 195.907 219.682 197.521C216.43 199.136 209.472 197.201 208.78 198.181C208.088 199.158 208.046 206.129 209.039 207.699C210.032 209.269 213.332 209.948 213.332 209.948Z" fill="#00AF91"/>
<path d="M201.172 221.247C201.172 221.247 198.782 204.905 198.891 202.07C198.923 201.26 193.974 201.561 194.204 203.118C194.707 206.507 192.423 219.645 192.82 222.048C193.218 224.454 201.374 222.762 201.172 221.247Z" fill="#EEA886"/>
<path d="M208.661 225.942C208.661 225.942 213.139 210.075 214.184 207.435C214.648 206.259 210.086 204.443 209.465 206.535C208.494 209.822 201.27 220.996 200.677 223.36C200.088 225.727 208.247 227.412 208.661 225.942Z" fill="#EEA886"/>
<path d="M205.551 236.969C205.551 236.969 210.36 220.752 211.1 219.026L203.517 214.339C203.517 214.339 200.002 224.699 199.509 227.288C199.016 229.879 205.551 236.969 205.551 236.969Z" fill="#D9D3C8"/>
<path d="M71.2968 194.122C71.2968 194.122 78.6202 195.974 82.1056 201.513C85.5911 207.052 88.6025 213.43 95.1505 216.326C101.699 219.219 101.74 226.677 101.231 227.827C100.722 228.977 80.6064 251.587 76.2175 252.462C71.8286 253.337 63.6115 252.728 64.4893 246.917C65.3671 241.105 73.9814 228.608 69.1472 222.304C64.3131 215.999 63.0957 210.191 63.0957 210.191L71.2968 194.122Z" fill="#222538"/>
<path d="M72.5737 221.167C72.5737 221.167 72.7883 221.097 73.1471 221.065C73.5636 221.026 74.1691 221.039 74.861 221.27C75.034 221.327 75.2615 221.446 75.5306 221.603C77.2701 222.628 81.3899 225.412 81.9473 225.479C82.5912 225.556 82.0466 215.949 82.0466 215.949C82.0466 215.949 79.8554 212.069 79.5767 209.516C79.3012 206.959 72.5737 221.167 72.5737 221.167Z" fill="#EEA886"/>
<path d="M124.096 231.206C124.096 231.206 132.143 225.564 141.578 227.32C151.012 229.079 152.028 233.487 155.267 233.689C158.505 233.887 169.327 232.965 178.204 235.553C187.084 238.142 194.574 238.42 195.593 237.68C196.612 236.94 190.044 222.143 190.044 220.105L201.052 217.238C201.052 217.238 204.198 230.373 205.431 233.333C206.751 236.498 209.285 242.46 205.678 247.64C202.071 252.82 191.989 250.485 185.883 251.529C179.78 252.574 152.454 251.904 147.684 251.648C142.504 251.369 126.873 250.629 126.873 250.629L124.096 231.206Z" fill="#D9D3C8"/>
<path d="M58.0039 201.961C58.0039 201.961 57.4913 209.912 59.2565 212.295C59.9613 213.25 60.4418 213.769 60.7622 214.048C61.2139 214.442 61.5663 214.938 61.7681 215.505C62.3127 217.033 62.6491 219.186 63.0848 219.644C63.5589 220.144 64.93 218.872 65.4298 218.869C65.9263 218.866 70.7701 223.046 71.9266 222.191C73.0831 221.336 80.1501 214.166 79.5543 209.252C78.9616 204.338 76.7928 196.998 68.8383 197.043C60.8839 197.088 58.6126 199.984 58.0039 201.961Z" fill="#EEA886"/>
<path d="M82.0404 239.901C82.1942 240.227 85.119 244.898 88.3226 247.608C89.6521 248.733 91.0296 249.521 92.279 249.521C92.6602 249.521 93.0318 249.527 93.3938 249.537C97.0715 249.636 99.8938 250.2 104.859 250.447C110.017 250.703 122.527 249.985 122.895 249.985C123.267 249.985 126.874 250.633 126.874 250.633C128.168 249.06 124.747 231.302 124.1 231.209C123.453 231.117 119.291 232.689 115.313 232.042C111.334 231.395 109.764 231.024 103.844 224.088C97.9236 217.152 92.0035 215.393 89.5079 215.948C87.0091 216.502 82.0468 215.948 82.0468 215.948C82.0468 215.948 81.8258 239.436 82.0404 239.901Z" fill="#4ED6BE"/>
<path d="M61.3517 207.654C61.3517 207.654 59.8684 211.495 59.0836 212.023C59.0836 212.023 56.2228 208.999 58.0584 201.532C59.8973 194.067 66.8266 193.362 71.2987 194.122C76.8665 195.067 82.4759 213.91 82.1844 215.743C81.8961 217.578 75.6556 206.004 70.1871 206.936C64.725 207.871 64.6802 208.176 61.3517 207.654Z" fill="#222538"/>
<path d="M73.135 221.073C73.5514 221.034 74.1601 221.063 74.8489 221.297C75.0219 221.355 75.2621 221.441 75.5312 221.598C76.8094 219.602 77.9948 214.874 78.0332 214.714C77.1811 216.537 73.135 221.073 73.135 221.073Z" fill="#A77860"/>
<path d="M82.4583 239.995C83.0748 241.623 83.9993 242.999 84.9993 243.999C84.9993 243.999 85.6874 244.815 85.9993 244.999L91.5133 230.391L82.4583 239.995Z" fill="#C29941"/>
<path d="M40.3376 252.067L41.6744 256.676C45.1426 256.88 54.575 256.183 56.4905 255.885C58.4996 255.569 71.8197 253.609 74.0596 252.671C76.3105 251.741 88.493 235.345 88.8248 234.455C89.15 233.576 81.898 228.574 79.923 229.888C79.923 229.888 73.4647 239.539 72.2457 241.073C71.0394 242.61 69.4878 243.718 67.4975 244.414C64.7446 245.378 58.6511 247.8 53.1885 249.432C51.8853 249.816 41.8636 251.816 40.3376 252.067Z" fill="#EEA886"/>
<path d="M78.5204 230.6C78.5204 230.6 84.5345 216.353 89.0111 218.647C94.6687 221.547 92.2571 228.996 87.9134 236.293C87.9091 236.294 79.2572 232.373 78.5204 230.6Z" fill="#4ED6BE"/>
<path d="M42.5829 251.667C42.5829 251.667 41.7901 252.052 41.0861 251.895C39.8691 251.618 38.7803 250.048 37.2339 250.914C35.6885 251.785 37.2146 257.262 38.0453 258.046C38.8759 258.83 41.3164 258.282 44.3083 256.089C47.3002 253.896 42.5829 251.667 42.5829 251.667Z" fill="#EEA886"/>
<path d="M37.7991 250.695C37.7991 250.695 35.1427 250.964 32.2249 251.609C29.666 252.178 26.7806 253.211 26.9567 253.849C27.1959 254.721 29.3692 253.642 31.9461 253.246C34.3205 252.88 33.9171 253.335 33.9171 253.335C33.9171 253.335 34.0239 253.198 31.5207 254.086C28.8279 255.039 25.8698 256.313 26.1428 256.928C26.3121 257.314 26.2939 257.374 27.3315 257.184C26.7605 257.416 26.7471 257.603 26.8272 257.84C27.243 259.08 31.4271 258.276 33.0885 257.957C31.8141 258.209 30.9076 258.528 31.672 259.132C32.5481 259.824 38.41 258.429 40.5618 258.126C42.9057 257.797 37.7991 250.695 37.7991 250.695Z" fill="#EEA886"/>
</svg>
